<svg width="96" height="96" viewBox="0 0 96 96" fill="none" xmlns="http://www.w3.org/2000/svg">
<path d="M24 95.9976L1.2615 87.588C0.503438 87.3077 0 86.5847 0 85.7764V23.9801C0 22.6352 1.34025 21.702 2.60156 22.1685L24 30.0823V95.9976Z" fill="#BDD8FC"/>
<path d="M0 51.0077V23.9801C0 22.6352 1.34025 21.702 2.60156 22.1685L24 30.0823L23.604 64.5432L0 51.0077Z" fill="#B3E59F"/>
<path d="M24 95.9944L48 87.1184V21.2031L24 30.0792V95.9944Z" fill="#9DC7FB"/>
<path d="M24 58.3285H48V21.2031L24 30.0792V58.3285Z" fill="#B3E59F"/>
<path d="M72 95.9944L48 87.1184V21.2031L72 30.0792V95.9944Z" fill="#BDD8FC"/>
<path d="M72 61.0418L48 55.2471V21.2031L72 30.0792V61.0418Z" fill="#B3E59F"/>
<path d="M72 95.9976L94.7385 87.588C95.4967 87.3075 96 86.5847 96 85.7764V23.9801C96 22.6352 94.6597 21.702 93.3984 22.1685L72 30.0823V95.9976Z" fill="#9DC7FB"/>
<path d="M94.7388 87.588C95.497 87.3077 96.0003 86.5849 96.0003 85.7764V23.9801C96.0003 22.6352 94.66 21.702 93.3987 22.1685L90.1094 23.385C90.1694 23.5714 90.2056 23.7698 90.2056 23.9801V89.2647L94.7388 87.588Z" fill="#80B5FB"/>
<path d="M96 73.0678V23.9801C96 22.6352 94.6597 21.702 93.3984 22.1685L72 30.0823V61.2289L96 73.0678Z" fill="#B3E59F"/>
<path d="M93.3987 22.1684L90.1094 23.3849C90.1694 23.5713 90.2056 23.7697 90.2056 23.9801V70.2093L96.0003 73.068V23.9801C96.0003 22.6351 94.66 21.7021 93.3987 22.1684Z" fill="#B3E59F"/>
<path d="M0 53.9629L7.98712 62.1817C10.9039 65.1853 15.1147 66.5857 19.2521 65.9252L24 65.1681L56.0297 60.0551C57.4127 59.8329 58.8171 60.0242 60.0898 60.6075L72 66.0527L96 77.0261V67.7565L72 56.7831L62.5005 52.4389C60.1845 51.3804 57.6309 51.0326 55.116 51.4344L24 56.4026L18.3384 57.3066C16.0629 57.6677 13.7471 56.8989 12.1419 55.2474L0 42.75V53.9629Z" fill="#FAD064"/>
<path d="M90.2031 74.379L95.9978 77.0286V67.7587L90.2031 65.1094V74.379Z" fill="#FFC250"/>
<path d="M27.8056 79.6741H14.0736C13.2736 79.6741 12.625 79.0256 12.625 78.2255C12.625 77.4252 13.2736 76.7769 14.0736 76.7769H27.8056C31.018 76.7769 33.6314 74.1633 33.6314 70.9511V46.5824C33.6314 41.7725 37.5445 37.8594 42.3546 37.8594H46.6697C47.4698 37.8594 48.1184 38.5079 48.1184 39.308C48.1184 40.1081 47.4698 40.7566 46.6697 40.7566H42.3546C39.1422 40.7566 36.5288 43.3702 36.5288 46.5822V70.9507C36.5286 75.7608 32.6155 79.6741 27.8056 79.6741Z" fill="#F7F6F7"/>
<path d="M64.7516 16.7509C64.7516 26.7221 52.3127 38.4371 48.873 41.4861C48.3748 41.9278 47.6267 41.928 47.1281 41.4866C43.6841 38.4388 31.2262 26.7229 31.25 16.7509C31.272 7.49962 38.7495 0 48.0007 0C57.252 0 64.7516 7.49962 64.7516 16.7509Z" fill="#D87B7B"/>
<path d="M48.0011 0C47.0128 0 46.0449 0.08625 45.104 0.2505C52.9741 1.623 58.9571 8.48794 58.9571 16.7509C58.9571 25.2621 49.8946 35.0428 45.1016 39.621C45.9252 40.4066 46.6239 41.0402 47.1283 41.4866C47.6268 41.9278 48.3748 41.9276 48.8731 41.4861C52.3128 38.4371 64.7517 26.7221 64.7517 16.7509C64.7519 7.49962 57.2523 0 48.0011 0V0Z" fill="#D06161"/>
<path d="M48.0056 25.7222C52.7981 25.7222 56.6831 21.8371 56.6831 17.0447C56.6831 12.2522 52.7981 8.36719 48.0056 8.36719C43.2132 8.36719 39.3281 12.2522 39.3281 17.0447C39.3281 21.8371 43.2132 25.7222 48.0056 25.7222Z" fill="white"/>
<path d="M11.567 82.384C13.8606 82.384 15.7199 80.5247 15.7199 78.2311C15.7199 75.9375 13.8606 74.0781 11.567 74.0781C9.2734 74.0781 7.41406 75.9375 7.41406 78.2311C7.41406 80.5247 9.2734 82.384 11.567 82.384Z" fill="#D87B7B"/>
</svg>
