<svg width="96" height="96" viewBox="0 0 96 96" fill="none" xmlns="http://www.w3.org/2000/svg">
<path d="M48.0004 90.0924C39.6754 90.0923 31.5373 87.6236 24.6152 82.9985C17.6932 78.3733 12.2982 71.7994 9.1123 64.1081C5.92644 56.4167 5.09288 47.9534 6.71701 39.7883C8.34114 31.6232 12.35 24.1231 18.2367 18.2364C22.1424 14.3144 26.7833 11.2013 31.8936 9.07524C37.004 6.94915 42.4835 5.85183 48.0185 5.84609C53.5534 5.84036 59.0352 6.92632 64.15 9.04182C69.2647 11.1573 73.912 14.2608 77.8258 18.1746C81.7397 22.0884 84.8432 26.7357 86.9586 31.8505C89.0741 36.9652 90.1601 42.447 90.1544 47.982C90.1486 53.517 89.0513 58.9965 86.9252 64.1068C84.7991 69.2172 81.686 73.858 77.7641 77.7637C73.8646 81.6847 69.2262 84.7933 64.1172 86.9095C59.0083 89.0257 53.5303 90.1075 48.0004 90.0924Z" fill="#B0EF8F"/>
<path d="M39.6 71.5904L18 49.9939L26.7805 41.2136L39.598 54.0311L69.2195 24.4095L78 33.1899L39.6 71.5904Z" fill="#009045"/>
</svg>
