<svg width="290" height="96" viewBox="0 0 290 96" fill="none" xmlns="http://www.w3.org/2000/svg">
<g clip-path="url(#clip0_217_53175)">
<path fill-rule="evenodd" clip-rule="evenodd" d="M0 47.541C0 21.2859 20.9842 0 46.8695 0C72.7548 0 93.739 21.2859 93.739 47.541C93.739 73.7982 72.7548 95.082 46.8695 95.082C20.9842 95.082 0 73.7982 0 47.541Z" fill="#FBBD1C"/>
<path fill-rule="evenodd" clip-rule="evenodd" d="M50.4463 46.7442C50.3956 46.6818 50.2898 46.6862 50.2089 46.754L49.676 47.2016C49.5961 47.2694 49.5724 47.3734 49.6231 47.4369L51.3201 49.5105C51.3697 49.5707 51.4755 49.5663 51.5553 49.5007L52.0893 49.052C52.1691 48.9831 52.1929 48.878 52.1422 48.8178L50.4463 46.7442ZM47.3856 49.3202C47.3338 49.2578 47.227 49.2632 47.1483 49.3289L46.6164 49.7776C46.5366 49.8454 46.5128 49.9494 46.5635 50.0117L48.2584 52.0865C48.3091 52.1478 48.4148 52.1434 48.4946 52.0766L49.0276 51.628C49.1063 51.5623 49.1311 51.4573 49.0794 51.3938L47.3856 49.3202ZM45.925 50.5557C45.8743 50.4933 45.7826 50.4856 45.7211 50.536L38.001 56.2689C37.9395 56.3203 37.932 56.4133 37.9827 56.4757L40.4165 59.4511C40.4672 59.5134 40.5578 59.5211 40.6193 59.4697L47.6015 52.834C47.663 52.7825 47.6705 52.6895 47.6198 52.6271L45.925 50.5557ZM48.6578 47.7161C48.5909 47.634 48.4733 47.6231 48.3935 47.6909L47.8595 48.1407C47.7807 48.2063 47.7678 48.3278 47.8358 48.4088L50.0452 51.1127C50.1121 51.1926 50.2318 51.2047 50.3106 51.1379L50.8446 50.6882C50.9244 50.6203 50.9341 50.501 50.8694 50.4179L48.6578 47.7161ZM36.9079 56.8435C36.8421 56.7614 36.7234 56.7494 36.6436 56.8183L36.1096 57.267C36.0298 57.3337 36.019 57.4541 36.0848 57.5362L39.0332 61.1408C39.099 61.2206 39.2188 61.2327 39.2997 61.1648L39.8315 60.7184C39.9124 60.6494 39.9221 60.5301 39.8563 60.4481L36.9079 56.8435ZM83.1366 33.7533L77.8557 27.296L79.9821 25.5079C80.5938 24.9925 80.679 24.0678 80.1709 23.4474C79.6628 22.8269 78.7512 22.7405 78.1395 23.257C78.1395 23.257 71.5122 28.8531 70.5737 29.6224C69.634 30.3906 67.8119 31.2168 66.5766 29.6662C64.3208 26.832 69.9728 24.7999 67.6231 21.8935C61.1944 13.9403 43.5783 21.8804 37.0989 23.8928C25.1962 27.5903 15.9658 25.1829 13.5179 24.5406C13.0799 24.4246 12.917 24.7419 13.0789 24.9061C14.3163 26.1579 26.1822 29.7844 38.1475 26.3013C39.3234 25.9588 42.3355 25.033 42.7163 24.9225C43.096 24.8109 43.4283 24.9859 43.52 25.2901C43.6182 25.6009 43.4941 25.8679 43.0939 26.0189C43.0939 26.0189 39.8283 27.099 38.6578 27.4623C30.3605 30.0393 23.3665 29.6519 19.0598 28.9615C18.5172 28.8739 18.0188 28.7831 17.5657 28.6912C17.2744 28.6397 17.0975 28.9067 17.31 29.0774C19.6403 30.7342 31.5073 32.3559 41.0819 29.1869C42.247 28.8017 45.2235 27.7654 45.5989 27.6418C45.9754 27.5159 46.3142 27.679 46.4167 27.981C46.531 28.2852 46.421 28.5588 46.0283 28.7295C46.0283 28.7295 42.822 29.9813 41.672 30.407C36.2455 32.4139 31.3315 33.0749 27.3689 33.158C26.8446 33.169 26.3419 33.1679 25.8446 33.1635C25.5468 33.1646 25.4788 33.5454 25.7367 33.6165C29.9905 34.7655 38.8498 34.0105 44.3798 31.8493C45.5223 31.405 48.4405 30.2122 48.8084 30.0678C49.1795 29.9233 49.5258 30.0678 49.6423 30.3643C49.7729 30.662 49.6758 30.941 49.295 31.1314C49.295 31.1314 46.1567 32.554 45.0304 33.0387C42.7778 34.0105 40.6072 34.7305 38.5499 35.2656C38.0417 35.3969 37.5401 35.5195 37.0449 35.6289C36.7957 35.6924 36.8033 36.0535 37.0492 36.0786C40.5112 36.4135 46.3228 34.6506 49.0382 33.4852C50.1656 32.9993 52.0352 32.1535 52.3987 31.9959C52.7623 31.8394 53.114 31.9729 53.2402 32.264C53.3859 32.5551 53.3039 32.8407 52.9327 33.0497C52.9327 33.0497 49.8732 34.6364 48.7728 35.1813C48.2604 35.4341 46.0218 36.4409 46.0218 36.4409C45.6183 36.6017 45.7305 36.9705 46.0175 36.9978C48.6854 37.2561 53.5854 35.015 54.8023 34.4132C55.9017 33.8682 56.2652 33.6581 56.6202 33.4819C56.9762 33.3047 57.3333 33.4196 57.4757 33.7041C57.6353 33.9864 57.5674 34.2753 57.2092 34.5051C57.2092 34.5051 53.4042 36.7155 53.0115 36.9377C52.6965 37.1029 52.8389 37.4542 53.0115 37.4706C54.2284 37.5888 59.3377 35.4593 59.7962 35.2087C60.8729 34.6178 60.82 34.6178 61.1696 34.4263C61.5169 34.2359 61.8784 34.3333 62.0326 34.6123C62.2063 34.8848 62.1545 35.177 61.8072 35.4254C61.8072 35.4254 60.7693 36.1115 59.7153 36.8009C59.2514 37.1062 58.8469 37.3699 58.4639 37.6172C58.3074 37.7201 58.2999 37.8952 58.3484 37.9805C58.3506 37.9816 58.3506 37.9816 58.3517 37.9838C58.3614 37.9936 58.3679 38.0101 58.3765 38.021C58.8576 38.6502 58.7649 39.5574 58.1564 40.0673L51.2649 45.867C51.143 45.9709 51.1246 46.1548 51.2271 46.2806L52.7019 48.0818C52.8033 48.2044 52.9845 48.223 53.1075 48.119L64.5463 38.4948C64.5484 38.4926 64.5484 38.4904 64.5517 38.4883L66.595 36.7691C66.6565 36.7166 66.7482 36.7265 66.7978 36.7866L67.0955 37.1521L67.0966 37.15L71.988 43.1313C72.0916 43.2571 72.2728 43.2746 72.3958 43.1707L74.1543 41.6901C74.2568 41.6048 74.2816 41.4625 74.2298 41.3465L70.8002 37.1543C70.7495 37.0909 70.7581 36.9989 70.8186 36.9464L72.8629 35.2284C72.9244 35.1759 73.015 35.1857 73.0668 35.2481L73.5901 35.8872L73.603 35.8762L76.4597 39.3702C76.5633 39.495 76.7445 39.5114 76.8664 39.4074L78.6271 37.928C78.749 37.824 78.7663 37.6402 78.6648 37.5143L75.8308 34.0499L75.8329 34.0488L75.2871 33.3802C75.2353 33.3178 75.2439 33.2237 75.3054 33.1733L77.3498 31.4542C77.4102 31.4028 77.5019 31.4105 77.5526 31.4739L80.9358 35.6114C81.0372 35.7329 81.2173 35.7482 81.3382 35.6453L83.0988 34.1648C83.2207 34.063 83.238 33.8791 83.1366 33.7533ZM35.2691 58.2363C35.2022 58.1554 35.0814 58.1433 35.0005 58.2112L34.7329 58.4399C31.4684 61.2007 24.6405 57.2591 18.3553 62.1287C18.2032 62.2414 18.0554 62.3596 17.9087 62.4843C13.5675 66.1567 12.9838 72.7049 16.6054 77.1072C20.226 81.5095 26.6806 82.1015 31.0207 78.4302C31.1674 78.3043 31.3087 78.1785 31.4457 78.0472C37.2962 72.6491 34.6984 65.1281 37.9629 62.3661L38.2315 62.1396C38.3114 62.0707 38.3232 61.9503 38.2553 61.8693L35.2691 58.2363ZM27.8442 74.4469C27.7083 75.9745 26.6014 77.489 24.3003 77.489C22.0002 77.489 20.5384 76.3575 19.2686 74.8124C17.9967 73.2695 17.3969 71.3151 17.576 69.3126C17.754 67.3111 18.6904 65.4957 20.2126 64.2078C20.4079 64.0425 20.6075 63.8893 20.8135 63.7471C20.5848 64.2526 20.437 64.802 20.3852 65.3765C20.2655 66.7191 20.669 68.0301 21.5201 69.0642C22.3552 70.0819 23.5268 70.7154 24.8235 70.8511L24.8267 70.8522L24.8936 70.8577C25.7599 70.9387 26.5442 71.3556 27.1009 72.033C27.6587 72.7103 27.923 73.5671 27.8442 74.4469ZM32.3659 70.659C32.1878 72.6626 31.2503 74.4759 29.7281 75.7649C29.5339 75.9291 29.3333 76.0823 29.1283 76.2245C29.3559 75.719 29.5048 75.1696 29.5566 74.5951C29.6763 73.2524 29.2729 71.9426 28.4228 70.9063C27.5856 69.8897 26.414 69.2572 25.1183 69.1215L25.114 69.1194L25.0482 69.1139C24.1819 69.0351 23.3976 68.6171 22.8409 67.9397C22.2832 67.2602 22.0189 66.4044 22.0987 65.5257C22.2346 63.9959 23.3404 62.4814 25.6405 62.4814C27.9416 62.4814 29.4034 63.614 30.6743 65.1581C31.944 66.7032 32.5449 68.6565 32.3659 70.659Z" fill="#FEFEFE"/>
<path fill-rule="evenodd" clip-rule="evenodd" d="M203.25 51.1502L200.727 35.0205H194.342L191.818 51.1502L189.965 35.0205H184.765L188.291 58.274H194.615L197.535 40.9121L200.453 58.274H206.778L210.305 35.0205H205.106L203.25 51.1502ZM205.526 18.7516C204.523 18.6597 204.006 18.4747 204.006 17.6715C204.006 16.9012 204.766 16.5926 206.135 16.5926C207.898 16.5926 209.631 16.9931 211.029 17.5796V13.4476C210.026 13.0154 208.718 12.6455 205.952 12.6455C201.269 12.6455 199.262 14.7432 199.262 17.8882C199.262 21.0955 200.6 22.3912 205.404 22.8223C206.408 22.9142 206.924 23.1003 206.924 23.9024C206.924 24.6727 206.225 24.9813 204.674 24.9813C202.759 24.9813 200.692 24.4265 199.262 23.8094V27.9424C200.388 28.4042 201.999 28.9284 204.797 28.9284C209.934 28.9284 211.668 26.6457 211.668 23.6857C211.668 20.4795 210.329 19.1827 205.526 18.7516ZM223.555 24.7624C223.312 24.8237 222.703 24.9473 222.065 24.9473C220.514 24.9473 220.058 24.2689 220.058 23.0662V17.1757H223.829V13.0733H220.058V8.72461L215.194 10.0509V13.2287L212.731 13.9071V17.1757H215.194V23.4667C215.194 27.1052 216.804 28.925 221.062 28.925C221.731 28.925 222.886 28.8025 223.555 28.6164V24.7624ZM214.744 43.8377L214.136 42.7281H211.218V58.1476H216.082V47.2617C216.477 46.8908 217.815 46.3677 219.305 46.3677C219.944 46.3677 220.551 46.429 220.795 46.4903V42.5115C220.581 42.4206 220.035 42.2959 219.427 42.2959C217.146 42.2959 215.504 43.0991 214.744 43.8377ZM166.515 53.9575C164.539 53.9575 162.988 53.1259 162.988 51.1518C162.988 50.319 163.291 49.6406 163.9 49.0245C165.177 50.7195 166.758 52.2625 168.521 53.6807C167.883 53.8656 167.215 53.9575 166.515 53.9575ZM167.096 39.2129C168.07 39.2129 168.373 39.6145 168.373 40.4779C168.373 41.7111 167.46 42.3589 166.122 42.975C165.849 42.2046 165.696 41.4956 165.696 40.8477C165.696 39.737 166.062 39.2129 167.096 39.2129ZM177.858 59.0105L179.652 54.7844C178.466 54.4769 177.311 54.014 176.155 53.3979C178.009 50.776 179.166 47.1671 179.166 42.7265H174.239C174.239 45.9339 173.57 48.7713 172.234 50.776C170.682 49.5111 169.345 48.0929 168.251 46.6736C171.29 45.1011 172.963 43.4356 172.963 40.4132C172.963 37.114 171.655 34.584 167.034 34.584C162.352 34.584 160.771 38.1305 160.771 40.9078C160.771 42.3249 161.074 43.7136 161.622 45.0705C159.28 46.5193 158.064 48.4321 158.064 51.8867C158.064 56.1424 161.044 58.5783 166.395 58.5783C168.736 58.5783 170.955 57.9304 172.872 56.6359C174.543 57.5923 176.216 58.3933 177.858 59.0105ZM170.257 73.4969L169.648 72.3862H166.729V87.8068H171.594V76.9209C171.989 76.55 173.328 76.0258 174.816 76.0258C175.455 76.0258 176.065 76.0871 176.306 76.1495V72.1707C176.094 72.0787 175.547 71.9551 174.939 71.9551C172.658 71.9551 171.017 72.7572 170.257 73.4969ZM186.464 83.5841C186.464 83.5841 185.523 84.2319 184.306 84.2319C182.056 84.2319 181.57 82.7513 181.57 80.0988C181.57 77.478 182.056 75.9668 184.306 75.9668C185.523 75.9668 186.464 76.6146 186.464 76.6146V83.5841ZM186.464 72.941C185.552 72.3851 184.336 71.954 182.663 71.954C178.711 71.954 176.765 74.4216 176.765 80.0954C176.765 85.7703 178.711 88.2379 182.663 88.2379C185.097 88.2379 186.525 87.4971 187.589 86.5724L188.41 87.8057H191.329V64.6748H186.464V72.941ZM159.435 84.1066C158.949 84.6001 158.128 84.8474 157.245 84.8474C156.212 84.8474 155.482 84.169 155.482 83.0277C155.482 81.824 156.029 81.1455 157.398 80.9606L159.435 80.6826V84.1066ZM157.637 71.9551C155.479 71.9551 153.197 72.511 152.165 72.9728V77.1059C153.503 76.5193 155.721 75.9328 157.637 75.9328C158.945 75.9328 159.432 76.3027 159.432 77.0128V77.9999L156.663 78.2767C153.928 78.5547 150.917 79.1708 150.917 83.3345C150.917 85.6478 152.225 88.2391 156.086 88.2391C157.911 88.2391 159.462 87.6219 160.556 86.6348L161.226 87.8068H164.144V77.7843C164.144 74.3297 163.11 71.9551 157.637 71.9551ZM259.864 42.2959C258.193 42.2959 256.276 42.7894 254.573 43.8377L253.966 42.7281H251.048V58.1476H255.911V47.1074C256.367 46.7989 257.432 46.3053 258.618 46.3053C259.925 46.3053 260.32 47.0757 260.32 48.217V58.1476H265.184V47.4773C265.184 44.5173 263.999 42.2959 259.864 42.2959ZM273.974 62.5887C271.572 62.5887 270.751 61.8796 270.751 60.7689C270.751 60.0904 271.269 59.4426 271.907 59.1953L277.165 59.8749C277.774 59.9679 278.018 60.2754 278.018 60.7689C278.018 61.7866 276.284 62.5887 273.974 62.5887ZM274.006 45.9375C275.496 45.9375 276.226 46.7079 276.226 48.2191C276.226 49.7303 275.496 50.5017 274.006 50.5017C272.516 50.5017 271.786 49.7303 271.786 48.2191C271.786 46.7079 272.516 45.9375 274.006 45.9375ZM278.718 55.9897L272.85 55.2183C272.424 55.157 272.242 54.9709 272.242 54.6634C272.242 54.3855 272.363 54.2006 272.454 54.078C272.942 54.1382 273.458 54.1382 274.006 54.1382C278.718 54.1382 280.847 52.1039 280.847 48.217C280.847 47.6316 280.785 47.0462 280.694 46.5209L282.519 46.0274V42.7281H277.563C276.468 42.3583 275.404 42.2959 274.006 42.2959C269.293 42.2959 267.164 44.3313 267.164 48.217C267.164 50.5916 267.956 52.2265 269.627 53.2135C268.655 53.9226 268.016 55.0016 268.016 55.8661C268.016 56.9155 268.471 57.8708 269.414 58.3643C267.864 58.7024 266.252 59.9992 266.252 62.0958C266.252 65.0865 269.627 66.2902 273.458 66.2902C278.111 66.2902 282.823 64.686 282.823 60.5222C282.823 58.0251 281.91 56.4209 278.718 55.9897ZM247.674 53.3682V42.7285H242.839V54.0477C242.839 57.0384 244.906 58.3953 247.521 58.3953C248.281 58.3953 248.92 58.2716 248.92 58.2716V54.2939C247.947 54.2939 247.674 53.9536 247.674 53.3682ZM225.049 41.1878C226.66 41.1878 227.937 39.9239 227.937 38.2595C227.937 36.6247 226.66 35.3291 225.049 35.3291C223.406 35.3291 222.16 36.6247 222.16 38.2595C222.16 39.9239 223.406 41.1878 225.049 41.1878ZM245.272 41.1878C246.882 41.1878 248.16 39.9239 248.16 38.2595C248.16 36.6247 246.882 35.3291 245.272 35.3291C243.63 35.3291 242.383 36.6247 242.383 38.2595C242.383 39.9239 243.63 41.1878 245.272 41.1878ZM227.455 53.3682V42.7285H222.62V54.0477C222.62 57.0384 224.687 58.3953 227.302 58.3953C228.063 58.3953 228.701 58.2716 228.701 58.2716V54.2939C227.727 54.2939 227.455 53.9536 227.455 53.3682ZM236.939 38.3838L232.075 39.7101V42.8867L229.612 43.5652V46.8349H232.075V53.1259C232.075 56.7644 233.686 58.5842 237.943 58.5842C238.612 58.5842 239.767 58.4616 240.436 58.2756V54.4205C240.192 54.4828 239.585 54.6054 238.946 54.6054C237.395 54.6054 236.939 53.9269 236.939 52.7243V46.8349H240.71V42.7325H236.939V38.3838ZM245.116 23.9636C244.113 24.3959 243.079 24.6727 241.742 24.6727C239.734 24.6727 238.366 23.7174 238.366 20.787C238.366 17.8576 239.734 16.9012 241.742 16.9012C243.079 16.9012 244.113 17.1791 245.116 17.6114V13.417C244.113 12.9224 242.926 12.6455 241.254 12.6455C235.63 12.6455 233.562 15.5443 233.562 20.787C233.562 26.0296 235.63 28.9284 241.254 28.9284C242.926 28.9284 244.113 28.6515 245.116 28.158V23.9636ZM199.931 78.0612C198.928 77.9692 198.411 77.7843 198.411 76.9822C198.411 76.2107 199.172 75.9021 200.539 75.9021C202.303 75.9021 204.035 76.3027 205.434 76.8903V72.7572C204.431 72.326 203.124 71.9551 200.356 71.9551C195.674 71.9551 193.668 74.0528 193.668 77.1978C193.668 80.4051 195.005 81.7007 199.809 82.133C200.813 82.2249 201.331 82.4098 201.331 83.2119C201.331 83.9823 200.63 84.2909 199.08 84.2909C197.164 84.2909 195.096 83.7361 193.668 83.1189V87.252C194.793 87.7138 196.404 88.2391 199.201 88.2391C204.341 88.2391 206.073 85.9564 206.073 82.9964C206.073 79.789 204.735 78.4923 199.931 78.0612ZM166.883 16.5908C168.554 16.5908 169.162 17.7015 169.162 20.7852C169.162 23.8689 168.554 24.9796 166.883 24.9796C165.209 24.9796 164.602 23.8689 164.602 20.7852C164.602 17.7015 165.209 16.5908 166.883 16.5908ZM166.879 28.9284C172.503 28.9284 174.024 25.5974 174.024 20.787C174.024 15.9754 172.503 12.6455 166.879 12.6455C161.253 12.6455 159.734 15.9754 159.734 20.787C159.734 25.5974 161.253 28.9284 166.879 28.9284ZM148.485 17.4529C148.942 17.1454 150.006 16.6519 151.192 16.6519C152.499 16.6519 152.895 17.4222 152.895 18.5636V28.4942H157.76V17.8238C157.76 14.8627 156.574 12.6424 152.438 12.6424C150.767 12.6424 149.551 13.0736 148.485 13.6295V5.36328H143.621V28.4942H148.485V17.4529ZM127.931 21.1247C127.931 16.1895 125.164 15.1412 120.117 14.431C117.746 14.0928 116.864 13.5676 116.864 11.9032C116.864 10.4215 118.263 9.62051 120.785 9.62051C123.097 9.62051 125.621 10.2366 126.867 10.8538V6.07395C125.803 5.48742 123.522 4.93262 120.422 4.93262C114.402 4.93262 111.877 7.70881 111.877 11.9032C111.877 16.4357 114.097 18.1625 119.874 18.935C122.185 19.2425 122.944 19.829 122.944 21.5854C122.944 23.1589 121.942 24.2379 118.506 24.2379C115.496 24.2379 112.941 23.067 111.877 22.4499V27.5087C113.519 28.4947 116.529 28.9258 118.992 28.9258C124.373 28.9258 127.931 26.8598 127.931 21.1247ZM118.568 79.1405L120.514 70.3808L122.461 79.1405H118.568ZM117.715 64.5537L111.391 87.8072H116.559L117.624 83.058H123.4L124.465 87.8072H129.634L123.309 64.5537H117.715ZM141.068 46.8349H143.529V53.1259C143.529 56.7644 145.141 58.5842 149.398 58.5842C150.067 58.5842 151.221 58.4616 151.89 58.2756V54.4205C151.648 54.4828 151.039 54.6054 150.402 54.6054C148.851 54.6054 148.394 53.9269 148.394 52.7243V46.8349H152.164V42.7325H148.394V38.3838L143.529 39.7101V42.8867L141.068 43.5652V46.8349ZM225.965 13.0771V24.3964C225.965 27.387 228.032 28.744 230.647 28.744C231.407 28.744 232.045 28.6203 232.045 28.6203V24.6426C231.072 24.6426 230.799 24.3034 230.799 23.7179V13.0771H225.965ZM144.199 81.3917L142.161 72.3857H138.147L136.109 81.3917L134.863 72.3857H130.12L133.768 88.0536H138.116L140.154 78.3069L142.19 88.0536H146.54L150.186 72.3857H145.443L144.199 81.3917ZM180.986 28.7404C181.746 28.7404 182.385 28.6167 182.385 28.6167V24.639C181.413 24.639 181.139 24.2998 181.139 23.7144V5.36328H176.303V24.3928C176.303 27.3835 178.371 28.7404 180.986 28.7404ZM228.39 11.5317C230.001 11.5317 231.277 10.2678 231.277 8.60232C231.277 6.96747 230.001 5.67184 228.39 5.67184C226.747 5.67184 225.501 6.96747 225.501 8.60232C225.501 10.2678 226.747 11.5317 228.39 11.5317ZM190.324 21.6451L192.361 21.3672V24.7912C191.875 25.2847 191.054 25.5309 190.172 25.5309C189.139 25.5309 188.408 24.8536 188.408 23.7122C188.408 22.5085 188.955 21.8301 190.324 21.6451ZM189.018 28.9284C190.842 28.9284 192.392 28.3123 193.486 27.3253L194.156 28.4972H197.074V18.4747C197.074 15.019 196.041 12.6455 190.568 12.6455C188.409 12.6455 186.128 13.2003 185.096 13.6632V17.7963C186.434 17.2087 188.653 16.6232 190.568 16.6232C191.875 16.6232 192.362 16.9931 192.362 17.7033V18.6903L189.595 18.9672C186.86 19.2451 183.849 19.8612 183.849 24.0249C183.849 26.3382 185.155 28.9284 189.018 28.9284ZM118.568 49.4872L120.515 40.7275L122.461 49.4872H118.568ZM117.715 34.8965L111.391 58.1499H116.559L117.624 53.4018H123.4L124.465 58.1499H129.634L123.309 34.8965H117.715ZM137.329 28.9284C139.001 28.9284 140.187 28.6515 141.191 28.158V23.9636C140.187 24.3959 139.153 24.6727 137.815 24.6727C135.809 24.6727 134.441 23.7174 134.441 20.787C134.441 17.8576 135.809 16.9012 137.815 16.9012C139.153 16.9012 140.187 17.1791 141.191 17.6114V13.417C140.187 12.9224 139.001 12.6455 137.329 12.6455C131.704 12.6455 129.637 15.5443 129.637 20.787C129.637 26.0296 131.704 28.9284 137.329 28.9284ZM133.952 42.7281H131.034V58.1476H135.899V47.2617C136.293 46.8908 137.631 46.3677 139.122 46.3677C139.76 46.3677 140.368 46.429 140.611 46.4903V42.5115C140.398 42.4206 139.85 42.2959 139.243 42.2959C136.963 42.2959 135.321 43.0991 134.561 43.8377L133.952 42.7281Z" fill="#FEFEFE"/>
</g>
<defs>
<clipPath id="clip0_217_53175">
<rect width="290" height="95.082" fill="white"/>
</clipPath>
</defs>
</svg>
