<svg width="108" height="96" viewBox="0 0 108 96" fill="none" xmlns="http://www.w3.org/2000/svg">
<path d="M53.6562 0.905697C55.2059 0.193055 56.9978 0.23496 58.5126 1.01861L66.5599 5.02802C67.0995 5.30309 67.7117 5.40193 68.3105 5.31045L74.5224 4.2658C76.5647 3.92867 78.6297 4.72032 79.9235 6.33591C81.2174 7.95151 81.5382 10.1397 80.7628 12.0588L79.3791 15.5037C79.0273 16.3804 79.1329 17.3748 79.6616 18.1578L82.2876 22.1391C82.8051 22.9128 83.6646 23.3885 84.5947 23.4166C85.5252 23.4448 86.4115 23.0213 86.9748 22.2802L91.4077 16.3506C92.4853 14.9084 94.1815 14.0601 95.982 14.0637H98.8338C100.634 14.0605 102.33 14.9084 103.408 16.3506L106.147 20.0213C107.168 21.3769 107.535 23.1159 107.148 24.7683C106.76 26.4207 105.659 27.8159 104.142 28.5769L98.9467 32.1062C97.1319 33.3383 96.1784 35.4973 96.4902 37.6688L96.7727 39.5889C97.2662 40.3323 97.3836 41.2637 97.09 42.1062C96.796 42.9487 96.125 43.6054 95.2764 43.8808L83.6995 47.7491C82.4076 48.1924 81.3098 49.0708 80.5936 50.2338L74.777 59.9753C73.7359 61.6933 71.8727 62.7424 69.864 62.7424H57.5534C54.9283 62.7469 52.6445 64.5413 52.0192 67.0909L51.1156 70.6487C50.9055 71.5065 51.1015 72.4133 51.6472 73.108C52.1929 73.8025 53.0277 74.2077 53.9108 74.2064H55.9438C57.5316 74.2131 58.8171 75.4986 58.8238 77.0864V81.0395C58.8242 82.1258 59.4357 83.1192 60.4049 83.6089L64.5272 85.9807C65.4913 86.4621 66.1025 87.4444 66.1083 88.522L63.0588 94.4515C62.6999 95.1484 62.0701 95.6676 61.3171 95.8863C60.5642 96.1054 59.7543 96.005 59.0775 95.609L42.7005 86.0651C42.0256 85.8035 41.4722 85.3004 41.1476 84.6533L30.4176 63.1653C30.2983 62.8822 30.1144 62.6308 29.8812 62.4312L22.0879 54.6113C20.1723 52.672 19.8777 49.6558 21.382 47.3829L28.328 36.9354C29.5448 35.1196 30.0194 32.9068 29.6551 30.7516L28.2433 22.2808C27.7657 19.27 25.0041 17.1679 21.975 17.5088L4.83546 19.429C2.93135 19.6372 1.11648 18.5689 0.374094 16.8029H0.346266C-0.541657 14.7098 0.331873 12.2859 2.35113 11.2403L18.4172 2.79766C18.6562 2.66683 18.913 2.57152 19.1795 2.51522L31.1517 0.115332C32.3947 -0.138955 33.6866 0.0299322 34.8224 0.59544L41.9661 4.18136C42.079 4.23797 42.2201 4.29427 42.3614 4.35088L53.6562 0.905697Z" fill="#46B29D"/>
</svg>
