<svg width="19" height="26" viewBox="0 0 19 26" fill="none" xmlns="http://www.w3.org/2000/svg">
<path d="M9.79541 5.13318L10.9919 7.0419C11.0489 7.13449 11.1415 7.19858 11.2483 7.22707L13.4348 7.77547C13.741 7.85381 13.855 8.21704 13.6556 8.45919L12.2098 10.1899C12.1386 10.2753 12.103 10.3821 12.1101 10.489L12.2596 12.7396C12.281 13.0529 11.9676 13.2808 11.6756 13.1598L9.58174 12.3193C9.48204 12.2766 9.36808 12.2766 9.26837 12.3193L7.17449 13.1598C6.88248 13.2737 6.56911 13.0458 6.59048 12.7396L6.74004 10.489C6.74716 10.3821 6.71155 10.2753 6.64033 10.1899L5.19455 8.45919C4.99513 8.21704 5.11621 7.85381 5.41534 7.77547L7.60181 7.22707C7.70864 7.19858 7.80123 7.13449 7.8582 7.0419L9.05471 5.13318C9.24701 4.86967 9.6316 4.86967 9.79541 5.13318Z" stroke="black" stroke-miterlimit="10"/>
<path d="M9.29692 18.0802C14.1035 18.0802 18.0001 14.1836 18.0001 9.377C18.0001 4.57037 14.1035 0.673828 9.29692 0.673828C4.49029 0.673828 0.59375 4.57037 0.59375 9.377C0.59375 14.1836 4.49029 18.0802 9.29692 18.0802Z" stroke="black" stroke-miterlimit="10"/>
<path d="M1.16328 23.4853C1.06357 23.8342 1.42679 24.1405 1.75441 23.9838L3.92664 22.9369C4.11893 22.8443 4.35396 22.9084 4.46792 23.0935L5.76413 25.1305C5.96355 25.4367 6.42648 25.3726 6.52619 25.0165L8.51325 18.0511C6.53332 17.8731 4.73856 17.0327 3.364 15.7578L1.16328 23.4853Z" stroke="black" stroke-miterlimit="10"/>
<path d="M15.222 15.7578C13.8475 17.0398 12.0527 17.8802 10.0728 18.0511L12.0598 25.0165C12.1595 25.3655 12.6296 25.4367 12.8219 25.1305L14.1181 23.0935C14.232 22.9155 14.4671 22.8443 14.6594 22.9369L16.8316 23.9838C17.1592 24.1405 17.5224 23.8342 17.4227 23.4853L15.222 15.7578Z" stroke="black" stroke-miterlimit="10"/>
</svg>
