<svg width="160" height="124" viewBox="0 0 160 124" fill="none" xmlns="http://www.w3.org/2000/svg">
<path d="M109.293 63.046C107.523 72.0648 129.742 74.6831 121.243 94.9308C112.113 116.681 56.091 124.134 35.5724 77.5205C13.906 28.2999 60.429 4.21048 89.4208 14.241C113.303 22.5035 113.515 41.5419 109.293 63.046Z" fill="#FFE9C8"/>
<path d="M109.293 63.0458C113.515 41.5417 113.303 22.5032 89.421 14.2407C77.6765 10.1775 63.0554 11.714 51.2554 18.2515C62.3296 13.2773 75.2249 12.3991 85.7919 16.0552C109.674 24.3179 109.886 43.3562 105.664 64.8603C103.894 73.879 126.113 76.4974 117.614 96.745C115.736 101.218 111.875 105.085 106.748 108.003C113.674 104.974 118.945 100.406 121.243 94.9304C129.742 74.6829 107.523 72.0646 109.293 63.0458Z" fill="#FFDCA7"/>
<path d="M107.971 93.0245C111.24 91.6849 112.805 87.9483 111.465 84.6787C110.126 81.4091 106.389 79.8445 103.119 81.1842C99.8498 82.5239 98.2852 86.2604 99.6249 89.53C100.965 92.7997 104.701 94.3642 107.971 93.0245Z" fill="#009E65"/>
<path d="M105.57 80.7461C104.939 80.7461 104.331 80.8389 103.755 81.0086C106.406 81.791 108.341 84.242 108.341 87.1463C108.341 90.0506 106.406 92.5016 103.755 93.284C104.331 93.4539 104.939 93.5465 105.57 93.5465C109.105 93.5465 111.97 90.6811 111.97 87.1463C111.97 83.6115 109.104 80.7461 105.57 80.7461Z" fill="#008954"/>
<path d="M86.6976 99.7741C90.1511 99.0248 92.3432 95.6177 91.5938 92.1643C90.8444 88.7109 87.4374 86.5188 83.9839 87.2682C80.5305 88.0175 78.3384 91.4246 79.0878 94.878C79.8372 98.3314 83.2442 100.524 86.6976 99.7741Z" fill="#00E0A7"/>
<path d="M85.3525 87.146C84.7221 87.146 84.1135 87.2386 83.5381 87.4085C86.1887 88.1909 88.1238 90.6419 88.1238 93.5462C88.1238 96.4505 86.1887 98.9015 83.5381 99.6839C84.1135 99.8538 84.7221 99.9464 85.3525 99.9464C88.8873 99.9464 91.7527 97.081 91.7527 93.5462C91.7527 90.0116 88.8873 87.146 85.3525 87.146Z" fill="#00C988"/>
<path d="M52.7518 76.7994C56.2865 76.7994 59.152 73.9339 59.152 70.3992C59.152 66.8645 56.2865 63.999 52.7518 63.999C49.217 63.999 46.3516 66.8645 46.3516 70.3992C46.3516 73.9339 49.217 76.7994 52.7518 76.7994Z" fill="#00DDFF"/>
<path d="M52.752 63.999C52.1215 63.999 51.5129 64.0916 50.9375 64.2615C53.5883 65.0439 55.5232 67.4949 55.5232 70.3992C55.5232 73.3035 53.5883 75.7545 50.9375 76.5369C51.5129 76.7068 52.1215 76.7994 52.752 76.7994C56.2867 76.7994 59.1521 73.934 59.1521 70.3992C59.1523 66.8645 56.2867 63.999 52.752 63.999Z" fill="#00D0FD"/>
<path d="M50.723 55.54C54.0068 54.2287 55.6057 50.5035 54.2944 47.2198C52.983 43.936 49.2579 42.3371 45.9741 43.6485C42.6903 44.9599 41.0914 48.685 42.4028 51.9687C43.7142 55.2525 47.4393 56.8514 50.723 55.54Z" fill="#FF656B"/>
<path d="M48.3496 43.1719C47.7191 43.1719 47.1105 43.2645 46.5352 43.4344C49.1857 44.2168 51.1209 46.6678 51.1209 49.5721C51.1209 52.4764 49.1857 54.9273 46.5352 55.7098C47.1105 55.8797 47.7191 55.9723 48.3496 55.9723C51.8844 55.9723 54.7498 53.1068 54.7498 49.5721C54.7498 46.0375 51.8844 43.1719 48.3496 43.1719Z" fill="#FF3E4C"/>
<path d="M63.2329 39.6792C66.7217 39.1066 69.0857 35.8141 68.5131 32.3254C67.9405 28.8366 64.6481 26.4726 61.1593 27.0452C57.6705 27.6178 55.3065 30.9102 55.8791 34.399C56.4517 37.8878 59.7442 40.2518 63.2329 39.6792Z" fill="#FF9A00"/>
<path d="M62.1865 26.9639C61.5561 26.9639 60.9475 27.0566 60.3721 27.2264C63.0227 28.0088 64.9578 30.4598 64.9578 33.3641C64.9578 36.2684 63.0227 38.7193 60.3721 39.5018C60.9475 39.6717 61.5561 39.7643 62.1865 39.7643C65.7213 39.7643 68.5867 36.8988 68.5867 33.3641C68.5869 29.8293 65.7213 26.9639 62.1865 26.9639Z" fill="#EF8800"/>
<path d="M83.9983 37.7906C87.5331 37.7906 90.3985 34.9252 90.3985 31.3904C90.3985 27.8557 87.5331 24.9902 83.9983 24.9902C80.4636 24.9902 77.5981 27.8557 77.5981 31.3904C77.5981 34.9252 80.4636 37.7906 83.9983 37.7906Z" fill="#FFDC00"/>
<path d="M83.9985 24.9902C83.3681 24.9902 82.7595 25.083 82.1841 25.2527C84.8347 26.0352 86.7698 28.4861 86.7698 31.3904C86.7698 34.2947 84.8347 36.7457 82.1841 37.5281C82.7595 37.698 83.3681 37.7906 83.9985 37.7906C87.5333 37.7906 90.3987 34.9252 90.3987 31.3904C90.3987 27.8557 87.5333 24.9902 83.9985 24.9902Z" fill="#FFBF00"/>
<path d="M83.3627 73.7301L77.7363 68.1039L82.2266 57.3242L94.1422 69.24L83.3627 73.7301Z" fill="#E6E2E6"/>
<path d="M80.5942 78.8461L72.6206 70.8724C71.5321 69.7838 71.5321 68.0189 72.6206 66.9303C73.7092 65.8416 75.4741 65.8416 76.5627 66.9303L84.5364 74.9039C85.625 75.9926 85.625 77.7574 84.5364 78.8461C83.4477 79.9347 81.6827 79.9347 80.5942 78.8461Z" fill="#FFDC00"/>
<path d="M79.3961 77.6482L73.8183 72.0705C71.5818 71.6318 69.1746 72.2783 67.442 74.0109C65.2785 76.1744 63.0873 84.4957 62.2361 88.0142C62.059 88.7467 62.7197 89.4074 63.4519 89.2301C66.9707 88.3789 75.2918 86.1879 77.4552 84.0242C79.1882 82.2918 79.8349 79.8845 79.3961 77.6482Z" fill="#BC6640"/>
<path d="M94.1422 69.2404L82.2266 57.3246L122.037 22.6488C123.942 20.9897 126.806 21.0883 128.592 22.8746C130.379 24.6607 130.477 27.525 128.818 29.4297L94.1422 69.2404Z" fill="#8C808A"/>
<path d="M91.5761 66.6738L80.7964 71.1641L83.3626 73.7301L94.1421 69.24L91.5761 66.6738Z" fill="#D8D1D7"/>
<path d="M84.5362 74.9039L81.97 72.3379C83.0587 73.4266 83.0587 75.1914 81.97 76.2801C80.8813 77.3688 79.1165 77.3688 78.0278 76.2801L80.594 78.8463C81.6827 79.9348 83.4476 79.935 84.5362 78.8463C85.6247 77.7576 85.6247 75.9926 84.5362 74.9039Z" fill="#FFBF00"/>
<path d="M79.3958 77.6482L76.8295 75.082C77.2684 77.3186 76.6217 79.7258 74.8891 81.4584C73.0393 83.3082 66.6891 85.1779 62.6868 86.2133C62.5112 86.8918 62.3596 87.5029 62.2362 88.0133C62.0588 88.7463 62.7188 89.4076 63.4518 89.2303C66.9706 88.3791 75.2917 86.1879 77.4551 84.0244C79.1879 82.2918 79.8346 79.8846 79.3958 77.6482Z" fill="#A05638"/>
<path d="M126.251 26.8632L91.5757 66.6739L94.1417 69.2399L128.817 29.4292C130.477 27.5243 130.378 24.6603 128.592 22.8741C128.139 22.421 127.616 22.0771 127.058 21.8423C127.749 23.4856 127.49 25.4415 126.251 26.8632Z" fill="#7B7179"/>
</svg>
