<svg width="98" height="100" viewBox="0 0 98 100" fill="none" xmlns="http://www.w3.org/2000/svg">
<g clip-path="url(#clip0_652_72576)">
<path d="M47.4819 15.7814H47.4991L78.1145 7.40227C79.9201 6.91705 81.7698 8.01108 82.2543 9.85048L86.6139 26.4708L88.5907 34.0054V34.0229L97.8834 69.3668C98.3672 71.204 97.301 73.0945 95.5006 73.5904L76.8644 78.6768L47.4819 15.7814Z" fill="#F3D55B"/>
<path d="M19.0622 9.19589C19.857 8.65193 20.8439 8.4879 21.7658 8.74729L87.0525 26.5921C88.8529 27.0879 89.9191 28.9785 89.4353 30.8156L71.9475 97.4347C71.4615 99.2719 69.6088 100.36 67.8077 99.8662L2.52088 82.0214C0.720507 81.5255 -0.345662 79.635 0.138824 77.7971L14.1964 24.2468L19.0622 9.19589Z" fill="#F9EAB0"/>
<path d="M76.4147 38.7981C76.2667 38.7988 76.1201 38.779 75.9773 38.7401L51.9437 32.1759C51.0428 31.9295 50.5074 30.9842 50.7497 30.0641C50.9912 29.144 51.9175 28.5985 52.8192 28.845L76.8521 35.4175C77.6716 35.6411 78.2009 36.4498 78.091 37.3073C77.9803 38.1648 77.2641 38.8064 76.4162 38.8072L76.4147 38.7981Z" fill="#802F34"/>
<path d="M73.7891 48.7983C73.6418 48.7983 73.4946 48.7785 73.3518 48.7396L57.013 44.2788C56.4276 44.1224 55.9685 43.6578 55.8108 43.0612C55.653 42.4646 55.8205 41.8275 56.2489 41.3911C56.6773 40.9547 57.3024 40.7854 57.8863 40.9479L74.225 45.4087C75.0445 45.6322 75.5738 46.4401 75.4639 47.2984C75.3533 48.156 74.637 48.7976 73.7891 48.7983Z" fill="#802F34"/>
<path d="M71.1725 58.798C71.0237 58.798 70.8764 58.7781 70.7329 58.7392L50.4069 53.1722C49.5052 52.925 48.9713 51.979 49.2128 51.0589C49.4551 50.1395 50.3822 49.5941 51.2839 49.8412L71.6099 55.4083C72.4293 55.6318 72.9587 56.4405 72.848 57.2988C72.7374 58.1571 72.0204 58.798 71.1725 58.798Z" fill="#802F34"/>
<path d="M21.2148 55.8427C21.0668 55.8434 20.9188 55.8236 20.7759 55.7847L15.8756 54.445C14.9747 54.1978 14.4401 53.2517 14.6823 52.3316C14.9238 51.4123 15.851 50.8668 16.7527 51.114L21.653 52.4529C22.4717 52.6772 23.0018 53.4859 22.8911 54.3442C22.7805 55.2018 22.0635 55.8434 21.2148 55.8427Z" fill="#802F34"/>
<path d="M68.5426 68.7823C68.3953 68.7823 68.248 68.7625 68.1052 68.7236L30.5687 58.4531C29.667 58.2067 29.1324 57.2607 29.3739 56.3406C29.6154 55.4213 30.5425 54.875 31.4442 55.1222L68.9807 65.3835C69.7994 65.6078 70.3295 66.4157 70.2188 67.274C70.1082 68.1316 69.3927 68.7732 68.5448 68.7732L68.5426 68.7823Z" fill="#802F34"/>
<path d="M18.59 65.8337C18.442 65.8345 18.2947 65.8147 18.1519 65.775L13.2523 64.4376C12.3506 64.1911 11.816 63.2451 12.0575 62.325C12.299 61.4056 13.2261 60.8594 14.1271 61.1066L19.0274 62.444C19.8469 62.6683 20.3762 63.477 20.2656 64.3353C20.1549 65.1929 19.4379 65.8345 18.59 65.8337Z" fill="#802F34"/>
<path d="M65.9209 78.7753C65.7729 78.7753 65.6263 78.7555 65.4835 78.7165L27.9448 68.4529C27.3617 68.2935 26.9063 67.8289 26.7501 67.2338C26.5945 66.6387 26.7613 66.0032 27.1882 65.5683C27.6151 65.1327 28.2372 64.9626 28.8203 65.122L66.3568 75.3856C67.1755 75.6092 67.7056 76.4179 67.5949 77.2754C67.485 78.1329 66.7688 78.7745 65.9209 78.7753Z" fill="#802F34"/>
<path d="M48.9516 52.1431L37.8174 48.3499L47.3807 38.5913L51.0974 49.9535C51.297 50.5745 51.1363 51.2581 50.6832 51.7204C50.2301 52.1828 49.5609 52.346 48.9516 52.1431Z" fill="#BDC3C7"/>
<path d="M16.3252 6.9024L6.76188 16.6609L1.98056 11.7813C-0.660188 9.08664 -0.660188 4.71815 1.98056 2.02351C4.62131 -0.671898 8.90319 -0.671898 11.5439 2.02351L16.3252 6.9024Z" fill="#FB7B76"/>
<path d="M47.381 38.5912L43.7989 42.2464V42.2639L41.4161 44.6946H41.3997L37.8176 48.3498L11.5439 21.5399L15.1425 17.8848L17.5253 15.4541L21.1073 11.7814L47.381 38.5912Z" fill="#E64C3C"/>
<path d="M6.76318 16.661L16.3258 6.90247L21.1071 11.7821L11.5445 21.5399L6.76318 16.661Z" fill="#BDC3C7"/>
<path d="M23.4895 23.9714C23.168 24.2903 22.7381 24.4696 22.2902 24.4711C21.8469 24.4688 21.4222 24.2895 21.1074 23.9714L15.1426 17.8848L17.5254 15.4541L23.4895 21.5399C24.1445 22.2128 24.1445 23.2985 23.4895 23.9714Z" fill="#C03A2B"/>
<path d="M43.7988 42.2464V42.264L41.416 44.6947H41.3995L25.872 28.8503C25.4429 28.4131 25.2754 27.7753 25.4324 27.178C25.5894 26.5806 26.047 26.1137 26.6324 25.9542C27.2178 25.794 27.8421 25.9649 28.2713 26.4021L43.7988 42.2464Z" fill="#C03A2B"/>
</g>
<defs>
<clipPath id="clip0_652_72576">
<rect width="98" height="100" fill="white"/>
</clipPath>
</defs>
</svg>
