<svg width="96" height="96" viewBox="0 0 96 96" fill="none" xmlns="http://www.w3.org/2000/svg">
<g clip-path="url(#clip0_217_53675)">
<path d="M95.3028 48C95.3028 62.4604 88.8612 75.4155 78.6912 84.1539C76.4643 86.0696 74.0585 87.7811 71.5008 89.2612C69.5423 90.3971 67.4943 91.3967 65.3723 92.2466C63.2018 93.116 60.9535 93.8317 58.639 94.3762C56.1457 94.9655 53.5784 95.3584 50.9508 95.5374C49.8616 95.6133 48.7608 95.6503 47.6523 95.6503C46.5438 95.6503 45.4428 95.6133 44.3538 95.5374C41.7261 95.3585 39.157 94.9655 36.6636 94.3762C34.3491 93.8317 32.1008 93.1159 29.9322 92.2466C27.8103 91.3967 25.7624 90.3969 23.8038 89.2612C21.2463 87.7811 18.8384 86.0677 16.6115 84.1539C6.44164 75.4134 0.00195312 62.4585 0.00195312 48C0.00195312 21.6834 21.3357 0.34967 47.6523 0.34967C73.9688 0.34967 95.3028 21.6832 95.3028 48Z" fill="#FFCC4E"/>
<path d="M92.6882 63.6041C86.2271 82.2578 68.5031 95.6505 47.6518 95.6505C40.0121 95.6505 32.7926 93.8533 26.3919 90.6579C16.5467 71.8448 8.67563 52.0358 2.91676 31.5501C1.95019 28.1153 1.04382 24.6593 0.19782 21.1875C-0.72018 17.4221 1.64682 13.6373 5.43357 12.8068C10.0138 11.8033 14.5922 10.7978 19.1724 9.7922C31.9601 6.98777 44.7461 4.18127 57.5338 1.37664C58.092 1.2542 58.6521 1.13158 59.2102 1.00914C59.9668 0.843766 60.7234 0.676516 61.482 0.511329C63.6137 0.044641 65.7296 0.614454 67.3071 1.89414C68.439 2.8082 69.2929 4.08808 69.672 5.60889C69.6836 5.65558 69.6952 5.70414 69.7089 5.75083C70.5336 9.04558 71.4283 12.3188 72.393 15.5687C73.5637 19.509 74.8357 23.4145 76.209 27.283C80.6608 39.8335 86.1746 51.9833 92.6882 63.6041Z" fill="#F2F2F2"/>
<path d="M72.3929 15.5686L53.6382 67.4704L49.5967 46.1074L59.2104 1.00902C59.9669 0.843644 60.7235 0.676394 61.4821 0.511206C63.6138 0.044519 65.7297 0.614331 67.3072 1.89402C68.4391 2.80808 69.293 4.08796 69.6721 5.60877C69.6837 5.65546 69.6954 5.70402 69.7091 5.75071C70.5337 9.04527 71.4282 12.3186 72.3929 15.5686Z" fill="#D5D4E2"/>
<path d="M92.6889 63.6039C86.2279 82.2576 68.5039 95.6503 47.6526 95.6503C40.0129 95.6503 32.7934 93.8531 26.3927 90.6577C24.3135 86.6863 22.324 82.6701 20.4238 78.6129C22.3181 79.9356 24.3116 81.1237 26.3927 82.1625C32.7934 85.3581 40.0129 87.1551 47.6526 87.1551C66.6428 87.1551 83.0402 76.0457 90.6954 59.9709C91.3489 61.1884 92.0141 62.3981 92.6889 63.6039Z" fill="#D5D4E2"/>
<path d="M14.9766 35.4111C13.7241 35.4111 12.5663 34.5981 12.1851 33.3372C11.719 31.7948 12.5911 30.1666 14.1334 29.7005L64.3122 14.5302C65.8552 14.0641 67.4828 14.9363 67.949 16.4785C68.4151 18.0209 67.543 19.6491 66.0007 20.1153L15.8219 35.2855C15.5404 35.3705 15.2562 35.4111 14.9766 35.4111Z" fill="#D5D4E2"/>
<path d="M22.3698 52.9154C21.1915 52.9154 20.0819 52.1966 19.6405 51.0292C19.0707 49.5221 19.8303 47.8383 21.3374 47.2685L67.6263 29.7643C69.133 29.1943 70.8171 29.954 71.3869 31.4611C71.9568 32.9683 71.1972 34.652 69.6901 35.2218L23.4012 52.7261C23.0613 52.8545 22.7125 52.9154 22.3698 52.9154Z" fill="#D5D4E2"/>
<path d="M31.0255 71.7809C29.9281 71.7809 28.8767 71.1588 28.381 70.099C27.6983 68.6395 28.3279 66.9029 29.7874 66.2202L58.4749 52.8002C59.9342 52.1176 61.6708 52.7472 62.3537 54.2067C63.0364 55.6662 62.4068 57.4028 60.9473 58.0855L32.2598 71.5054C31.8601 71.6924 31.4395 71.7809 31.0255 71.7809Z" fill="#D5D4E2"/>
<path d="M75.5927 53.12L64.8836 60.1207L53.6393 67.4709L53.2549 54.0427L52.8896 41.2537L58.1087 41.4823L72.1384 42.1008L75.5927 53.12Z" fill="#D5D4E2"/>
<path d="M53.6393 67.471L53.2549 54.0428L52.8896 41.2538L58.1087 41.4823L60.3085 46.533L53.6393 67.471Z" fill="#CBCBD3"/>
<path d="M95.4967 15.0396L90.9287 23.7793L68.2256 11.9128L72.7936 3.17307C73.9247 1.00913 76.5954 0.172133 78.7592 1.30295L93.6264 9.07388C95.7904 10.2051 96.6276 12.8758 95.4967 15.0396Z" fill="#CF3067"/>
<path d="M95.4969 15.0395L90.9288 23.7792L75.1572 15.5358L79.7253 6.79602C80.8563 4.63227 83.527 3.79508 85.6908 4.9259L93.6269 9.07377C95.7905 10.205 96.6277 12.8757 95.4969 15.0395Z" fill="#F14881"/>
<path d="M90.8235 23.9799L75.5925 53.12C72.4583 51.4818 68.5883 52.6947 66.9501 55.829C68.5883 52.6947 67.3753 48.8247 64.2411 47.1866C61.1068 45.5484 57.2368 46.7613 55.5986 49.8956C57.2368 46.7613 56.0239 42.8913 52.8896 41.2531L68.1206 12.113L90.8235 23.9799Z" fill="#2176C4"/>
<path d="M90.8236 23.9798L75.5926 53.1199C72.4584 51.4818 68.5884 52.6947 66.9502 55.8289C68.5884 52.6947 67.3755 48.8247 64.2412 47.1865L79.4722 18.0464L90.8236 23.9798Z" fill="#72BAED"/>
<path d="M85.1467 21.0132L66.9491 55.8291C68.5873 52.6949 67.3743 48.8248 64.2401 47.1867C61.1058 45.5485 57.2358 46.7614 55.5977 49.8957L73.7953 15.0797L85.1467 21.0132Z" fill="#55ACE5"/>
<path d="M92.2292 24.7153C91.8805 25.3824 91.2962 25.8442 90.6325 26.0523C89.9687 26.2605 89.2251 26.2145 88.5582 25.866L67.8644 15.0498C66.5324 14.3536 66.0173 12.711 66.7135 11.3788C67.0623 10.7116 67.6465 10.2498 68.3103 10.0417C68.974 9.83358 69.7176 9.87952 70.3846 10.2281L91.0784 21.0444C92.4106 21.7404 92.9256 23.3833 92.2292 24.7153Z" fill="#CBCBD3"/>
<path d="M92.2294 24.715C91.8806 25.3821 91.2964 25.8439 90.6326 26.052C89.9689 26.2602 89.2253 26.2142 88.5583 25.8657L74.0929 18.3047C72.7609 17.6085 72.2458 15.9658 72.942 14.6337C73.2908 13.9665 73.875 13.5047 74.5388 13.2966C75.2025 13.0885 75.9462 13.1344 76.6131 13.483L91.0785 21.0439C92.4107 21.7401 92.9258 23.383 92.2294 24.715Z" fill="#D5D4E2"/>
<path d="M64.8827 60.1205L53.6381 67.4705L53.2539 54.0425C54.7402 53.9981 56.2503 54.2019 57.7162 54.6714C58.4443 54.9033 59.1607 55.2015 59.8599 55.5669C61.9717 56.6703 63.6669 58.2573 64.8827 60.1205Z" fill="#454A5B"/>
<path d="M53.6381 67.471L53.2539 54.043C54.7402 53.9986 56.2503 54.2024 57.7162 54.6719L53.6381 67.471Z" fill="#33384A"/>
</g>
<defs>
<clipPath id="clip0_217_53675">
<rect width="96" height="96" fill="white"/>
</clipPath>
</defs>
</svg>
