<svg width="96" height="96" viewBox="0 0 96 96" fill="none" xmlns="http://www.w3.org/2000/svg">
<path d="M44.5446 56.8433C44.4464 59.6836 42.2213 61.9857 39.3647 62.1963C36.7047 62.3905 34.0187 62.491 31.3844 62.491C28.75 62.491 26.0665 62.3905 23.4062 62.1963C20.5495 61.9857 18.3222 59.6836 18.2263 56.8433C17.8005 44.4106 17.8005 31.8164 18.2241 19.4118C18.3223 16.5691 20.5474 14.2694 23.404 14.0588C26.064 13.8646 28.75 13.7641 31.3844 13.7641C34.0187 13.7641 36.7047 13.8646 39.3672 14.0588C42.2215 14.2694 44.4488 16.5693 44.547 19.4118C44.6102 21.2461 44.6616 23.0826 44.706 24.9239H55.4099C55.3654 22.9587 55.3092 21.0004 55.2415 19.0444C54.9584 10.7294 48.4707 3.99606 40.1509 3.38538C37.2287 3.17013 34.2809 3.0625 31.3844 3.0625C28.4903 3.0625 25.54 3.17013 22.6202 3.38538C14.3007 3.99606 7.81278 10.7294 7.52741 19.0444C7.09466 31.6924 7.09466 44.5321 7.52966 57.2082C7.81278 65.5255 14.3005 72.2566 22.6202 72.8695C25.54 73.0848 28.4903 73.1924 31.3844 73.1924C34.2809 73.1924 37.2287 73.0848 40.1509 72.8695C48.4682 72.2566 54.9559 65.5255 55.2415 57.2082C55.2765 56.1623 55.3094 55.1142 55.3397 54.0638H44.6312C44.6055 54.9927 44.5774 55.9191 44.5446 56.8433Z" fill="#665E66"/>
<path d="M39.3688 14.0604C37.6117 13.9317 35.843 13.8498 34.0859 13.8054C34.9889 13.7819 35.8921 13.7656 36.7859 13.7656C39.4203 13.7656 42.1063 13.8661 44.7663 14.0604C47.6231 14.2709 49.8479 16.5708 49.9462 19.4133C50.0094 21.2476 50.0608 23.0842 50.1052 24.9254H44.7076C44.6632 23.0842 44.6116 21.2476 44.5486 19.4133C44.4504 16.5708 42.2253 14.2709 39.3688 14.0604Z" fill="#544F57"/>
<path d="M28.0172 72.8695C19.6987 72.2573 13.211 65.525 12.9266 57.2093C12.4929 44.5336 12.4924 31.6934 12.9251 19.0456C13.2099 10.7294 19.6978 3.99719 28.0168 3.38594C30.0349 3.23763 32.0657 3.1435 34.0835 3.09719C33.1807 3.07656 32.2796 3.0625 31.3847 3.0625C28.4895 3.0625 25.5403 3.17125 22.619 3.38594C14.3002 3.99738 7.81217 10.7294 7.52736 19.0456C7.09461 31.6936 7.09498 44.5338 7.52886 57.2093C7.81348 65.525 14.301 72.2573 22.6194 72.8695C25.5401 73.0844 28.4891 73.1933 31.3845 73.1933C32.2796 73.1933 33.1805 73.1793 34.0834 73.1584C32.0655 73.1121 30.035 73.0178 28.0172 72.8695Z" fill="#544F57"/>
<path d="M31.3837 86.0638C24.3005 86.0638 17.1575 85.8583 10.0263 85.4506C4.90116 85.1578 0.803157 81.08 0.47897 75.9568C-0.158718 65.8818 -0.159843 55.7726 0.47672 45.7149C0.800907 40.5918 4.89909 36.5144 10.0238 36.2217C17.1487 35.8149 24.3008 35.6094 31.3837 35.6094C38.4665 35.6094 45.6189 35.8149 52.7435 36.2217C57.8684 36.5144 61.9664 40.592 62.2906 45.7149C62.9272 55.7726 62.926 65.8818 62.2883 75.9568C61.964 81.08 57.8662 85.1578 52.741 85.4506C45.6099 85.8583 38.4669 86.0638 31.3837 86.0638Z" fill="#F4DD45"/>
<path d="M12.4552 85.5802C11.6445 85.5427 10.8337 85.4974 10.0258 85.4518C4.90198 85.1602 0.802854 81.0825 0.479041 75.9585C-0.157896 65.8821 -0.160521 55.7734 0.476229 45.7155C0.800041 40.5943 4.89917 36.5166 10.023 36.2222C10.8337 36.1766 11.6417 36.1312 12.4524 36.0938C9.44229 37.8596 7.36592 41.0411 7.13323 44.7362C6.45354 55.4469 6.45635 66.2111 7.13585 76.9378C7.36873 80.6331 9.4451 83.8144 12.4552 85.5802Z" fill="#ECC32E"/>
<path d="M87.6577 90.9778C68.7956 91.6832 49.9332 91.6832 31.0711 90.9778C27.9329 90.8604 25.331 88.5341 24.8199 85.4357C23.935 80.0718 23.935 74.7082 24.8199 69.3446C25.331 66.2462 27.9329 63.9198 31.0711 63.8025C49.9332 63.0971 68.7956 63.0971 87.6577 63.8025C90.7959 63.9198 93.398 66.2462 93.9089 69.3446C94.7937 74.7082 94.7937 80.072 93.9089 85.4357C93.398 88.5341 90.7959 90.8604 87.6577 90.9778Z" fill="#F9F6F9"/>
<path d="M59.3668 92.9344C49.8958 92.9344 40.4248 92.7585 31.0201 92.407C27.2334 92.2654 24.0345 89.4325 23.414 85.6709C22.5078 80.178 22.5078 74.608 23.414 69.1152C24.0345 65.3536 27.2334 62.5206 31.0201 62.379C49.8298 61.6757 68.9042 61.6757 87.7134 62.379C91.5002 62.5206 94.6991 65.3536 95.3195 69.1152C96.2257 74.608 96.2257 80.178 95.3195 85.6709C94.6991 89.4325 91.5004 92.2654 87.7134 92.407C78.3086 92.7587 68.8378 92.9344 59.3668 92.9344ZM87.66 90.9808H87.6618H87.66ZM59.3668 64.7061C49.9314 64.7061 40.4962 64.8812 31.1268 65.2315C28.6903 65.3226 26.6311 67.1513 26.2305 69.5798C25.3751 74.7644 25.3751 80.0219 26.2305 85.2064C26.6311 87.6349 28.6903 89.4636 31.127 89.5547C49.866 90.2554 68.8683 90.2554 87.6069 89.5547C90.0435 89.4636 92.1028 87.6349 92.5033 85.2064C93.3587 80.0219 93.3587 74.7644 92.5033 69.5798C92.1028 67.1513 90.0435 65.3226 87.6069 65.2315C78.2373 64.8812 68.802 64.7061 59.3668 64.7061Z" fill="#E2DFE2"/>
<path d="M42.3003 73.4256C41.9062 72.7429 41.0333 72.5091 40.3507 72.9033L36.8607 74.9181V70.8882C36.8607 70.0999 36.2217 69.4609 35.4335 69.4609C34.6452 69.4609 34.0062 70.0999 34.0062 70.8882V74.9181L30.5161 72.9031C29.8334 72.5088 28.9604 72.7429 28.5665 73.4254C28.1723 74.1081 28.4062 74.9809 29.0888 75.3751L32.579 77.3901L29.0888 79.4052C28.4062 79.7993 28.1723 80.6721 28.5665 81.3548C28.8308 81.8127 29.3105 82.0686 29.8038 82.0686C30.0458 82.0686 30.2913 82.0069 30.5161 81.8772L34.0062 79.8621V83.8921C34.0062 84.6803 34.6452 85.3193 35.4335 85.3193C36.2217 85.3193 36.8607 84.6803 36.8607 83.8921V79.8621L40.3507 81.877C40.5755 82.0068 40.8209 82.0684 41.063 82.0684C41.5561 82.0684 42.0359 81.8123 42.3003 81.3546C42.6944 80.6719 42.4606 79.7991 41.7779 79.405L38.2878 77.3899L41.7779 75.3749C42.4606 74.9811 42.6944 74.1083 42.3003 73.4256Z" fill="#665E66"/>
<path d="M58.0036 73.4254C57.6095 72.7428 56.7365 72.5089 56.054 72.9031L52.5639 74.9181V70.8882C52.5639 70.0999 51.9249 69.4609 51.1366 69.4609C50.3484 69.4609 49.7094 70.0999 49.7094 70.8882V74.9181L46.2192 72.9031C45.5365 72.5087 44.6637 72.7429 44.2696 73.4254C43.8755 74.1081 44.1093 74.9809 44.792 75.3751L48.2821 77.3901L44.792 79.4052C44.1093 79.7993 43.8755 80.6721 44.2696 81.3548C44.534 81.8127 45.0136 82.0686 45.5069 82.0686C45.749 82.0686 45.9944 82.0069 46.2192 81.8772L49.7094 79.8621V83.8921C49.7094 84.6803 50.3484 85.3193 51.1366 85.3193C51.9249 85.3193 52.5639 84.6803 52.5639 83.8921V79.8621L56.054 81.8772C56.2788 82.0069 56.5242 82.0686 56.7663 82.0686C57.2594 82.0686 57.7392 81.8125 58.0036 81.3548C58.3977 80.6721 58.1639 79.7993 57.4812 79.4052L53.9911 77.3901L57.4812 75.3751C58.1637 74.9809 58.3977 74.1081 58.0036 73.4254Z" fill="#665E66"/>
<path d="M73.7067 73.4254C73.3126 72.7428 72.4396 72.5089 71.7571 72.9031L68.267 74.9181V70.8882C68.267 70.0999 67.628 69.4609 66.8397 69.4609C66.0515 69.4609 65.4125 70.0999 65.4125 70.8882V74.9181L61.9223 72.9031C61.2397 72.5087 60.3668 72.7429 59.9727 73.4254C59.5786 74.1081 59.8124 74.9809 60.4951 75.3751L63.9852 77.3901L60.4951 79.4052C59.8124 79.7993 59.5786 80.6721 59.9727 81.3548C60.2371 81.8127 60.7167 82.0686 61.21 82.0686C61.4521 82.0686 61.6975 82.0069 61.9223 81.8772L65.4125 79.8621V83.8921C65.4125 84.6803 66.0515 85.3193 66.8397 85.3193C67.628 85.3193 68.267 84.6803 68.267 83.8921V79.8621L71.7571 81.8772C71.9819 82.0069 72.2273 82.0686 72.4694 82.0686C72.9625 82.0686 73.4423 81.8125 73.7067 81.3548C74.1008 80.6721 73.867 79.7993 73.1843 79.4052L69.6942 77.3901L73.1843 75.3751C73.867 74.9809 74.101 74.1081 73.7067 73.4254Z" fill="#665E66"/>
<path d="M88.8951 79.4054L85.405 77.3903L88.8951 75.3752C89.5778 74.9811 89.8116 74.1083 89.4175 73.4256C89.0234 72.7429 88.1505 72.5091 87.4678 72.9032L83.9779 74.9181V70.8882C83.9779 70.0999 83.3389 69.4609 82.5507 69.4609C81.7624 69.4609 81.1234 70.0999 81.1234 70.8882V74.9181L77.6333 72.9031C76.9508 72.5087 76.0778 72.7429 75.6837 73.4254C75.2895 74.1081 75.5233 74.9809 76.206 75.3751L79.6962 77.3901L76.206 79.4052C75.5233 79.7993 75.2895 80.6721 75.6837 81.3548C75.948 81.8127 76.4277 82.0686 76.921 82.0686C77.163 82.0686 77.4085 82.0069 77.6333 81.8772L81.1234 79.8621V83.892C81.1234 84.6803 81.7624 85.3193 82.5507 85.3193C83.3389 85.3193 83.9779 84.6803 83.9779 83.892V79.8621L87.4678 81.877C87.6927 82.0067 87.9381 82.0684 88.1802 82.0684C88.6733 82.0684 89.1531 81.8123 89.4175 81.3546C89.8116 80.6723 89.5778 79.7995 88.8951 79.4054Z" fill="#665E66"/>
<path d="M60.4735 27.8864C60.2689 27.8864 60.0613 27.8424 59.8641 27.749C59.1516 27.4121 58.8473 26.5612 59.1842 25.8485L61.9371 20.0283C62.274 19.3158 63.1245 19.0111 63.8376 19.3484C64.5501 19.6854 64.8544 20.5363 64.5175 21.2489L61.7646 27.0691C61.5208 27.5846 61.0082 27.8864 60.4735 27.8864Z" fill="#DD636E"/>
<path d="M69.0748 38.3972C68.8702 38.3972 68.6627 38.3531 68.4656 38.2597L62.6454 35.5069C61.9329 35.1699 61.6284 34.3191 61.9655 33.6066C62.3025 32.8939 63.1534 32.5892 63.8659 32.9267L69.686 35.6795C70.3985 36.0165 70.703 36.8674 70.3659 37.5799C70.1222 38.0951 69.6095 38.3972 69.0748 38.3972Z" fill="#DD636E"/>
<path d="M63.4745 31.1885C62.8886 31.1885 62.3394 30.8249 62.1307 30.2416C61.8652 29.4995 62.2514 28.6828 62.9937 28.4171L69.0558 26.2481C69.7978 25.982 70.6149 26.369 70.8804 27.1111C71.1459 27.8533 70.7596 28.67 70.0173 28.9357L63.9552 31.1047C63.7962 31.1615 63.6341 31.1885 63.4745 31.1885Z" fill="#DD636E"/>
</svg>
