<svg width="168" height="118" viewBox="0 0 168 118" fill="none" xmlns="http://www.w3.org/2000/svg">
<g clip-path="url(#clip0_2180_228673)">
<path d="M144.827 1H110.069H104.276H63.7241H57.931H23.1725C23.1725 13.8173 12.7978 24.2083 0 24.2083V93.8328C12.7975 93.8328 23.1725 104.223 23.1725 117.041H144.828C144.828 104.224 155.202 93.8328 168 93.8328V24.2083C155.202 24.2083 144.827 13.8176 144.827 1Z" fill="#C38C66"/>
<path d="M23.1725 0.923828H8.68972C7.93995 0.923828 7.21217 1.0188 6.51819 1.19791C5.82421 1.37668 5.16369 1.63926 4.5478 1.97413C4.30171 2.10789 4.06251 2.2538 3.83118 2.4099C2.90685 3.03529 2.10886 3.83452 1.48411 4.76093C1.32792 4.99229 1.18256 5.23186 1.04901 5.47866C0.714327 6.09517 0.452484 6.75704 0.273984 7.45209C0.0948279 8.14715 0 8.87605 0 9.62697V24.1321C12.7975 24.1321 23.1725 13.7414 23.1725 0.923828Z" fill="#FAD064"/>
<path d="M167.727 7.45176C167.548 6.75671 167.286 6.09484 166.952 5.47833C166.818 5.23186 166.672 4.99229 166.516 4.7606C165.892 3.83452 165.094 3.03561 164.169 2.40957C163.938 2.25314 163.699 2.10756 163.453 1.97381C162.837 1.6386 162.176 1.37635 161.482 1.19758C160.788 1.0188 160.061 0.923828 159.311 0.923828H144.828C144.828 13.7411 155.203 24.1321 168.001 24.1321V9.62698C168 8.87572 167.905 8.14682 167.727 7.45176Z" fill="#FAD064"/>
<path d="M144.828 116.964H159.311C160.061 116.964 160.788 116.869 161.482 116.69C162.176 116.511 162.837 116.249 163.453 115.914C163.699 115.78 163.938 115.634 164.169 115.478C165.094 114.853 165.892 114.053 166.516 113.127C166.673 112.896 166.818 112.656 166.952 112.409C167.286 111.793 167.548 111.131 167.727 110.436C167.905 109.741 168 109.012 168 108.261V93.7559C155.203 93.7559 144.828 104.147 144.828 116.964Z" fill="#FAD064"/>
<path d="M0 93.7559V108.261C0 109.012 0.0948279 109.741 0.273656 110.436C0.452155 111.131 0.714327 111.793 1.04869 112.409C1.18223 112.656 1.32792 112.895 1.48378 113.127C2.1082 114.053 2.9062 114.852 3.83085 115.478C4.06185 115.634 4.30105 115.78 4.54748 115.914C5.16304 116.249 5.82388 116.512 6.51786 116.69C7.21185 116.869 7.93963 116.964 8.68939 116.964H23.1721C23.1725 104.147 12.7975 93.7559 0 93.7559Z" fill="#FAD064"/>
</g>
<g clip-path="url(#clip1_2180_228673)">
<path d="M86.6836 33.099H86.698L112.286 26.1443C113.795 25.7416 115.341 26.6496 115.746 28.1763L119.39 41.9711L121.042 48.2249V48.2394L128.809 77.5749C129.213 79.0997 128.322 80.6688 126.817 81.0804L111.241 85.3021L86.6836 33.099Z" fill="#F3D55B"/>
<path d="M62.9294 27.6325C63.5936 27.181 64.4185 27.0448 65.189 27.2601L119.755 42.0713C121.26 42.4829 122.151 44.052 121.747 45.5768L107.131 100.871C106.724 102.396 105.176 103.299 103.671 102.889L49.1042 88.0777C47.5995 87.6661 46.7084 86.0969 47.1133 84.5715L58.8625 40.1248L62.9294 27.6325Z" fill="#F9EAB0"/>
<path d="M110.867 52.2028C110.743 52.2034 110.62 52.1869 110.501 52.1546L90.4138 46.7064C89.6608 46.5018 89.2134 45.7173 89.4159 44.9536C89.6177 44.1899 90.392 43.7372 91.1456 43.9417L111.232 49.3969C111.917 49.5825 112.359 50.2537 112.268 50.9654C112.175 51.6772 111.576 52.2097 110.868 52.2104L110.867 52.2028Z" fill="#802F34"/>
<path d="M108.677 60.5037C108.553 60.5037 108.43 60.4873 108.311 60.455L94.6552 56.7525C94.1659 56.6227 93.7822 56.2371 93.6503 55.7419C93.5185 55.2467 93.6584 54.718 94.0165 54.3558C94.3746 53.9936 94.897 53.853 95.385 53.9879L109.041 57.6903C109.726 57.8759 110.168 58.5464 110.076 59.2588C109.984 59.9706 109.385 60.5031 108.677 60.5037Z" fill="#802F34"/>
<path d="M106.484 68.8038C106.36 68.8038 106.237 68.7873 106.117 68.755L89.1285 64.1344C88.3749 63.9292 87.9287 63.144 88.1306 62.3803C88.333 61.6173 89.1079 61.1645 89.8615 61.3697L106.85 65.9903C107.535 66.1759 107.977 66.8471 107.885 67.5595C107.792 68.2719 107.193 68.8038 106.484 68.8038Z" fill="#802F34"/>
<path d="M64.7312 66.3492C64.6075 66.3499 64.4838 66.3334 64.3644 66.3011L60.2688 65.1891C59.5157 64.984 59.0689 64.1987 59.2714 63.435C59.4732 62.672 60.2481 62.2192 61.0018 62.4244L65.0974 63.5357C65.7817 63.7219 66.2247 64.3931 66.1323 65.1055C66.0398 65.8173 65.4405 66.3499 64.7312 66.3492Z" fill="#802F34"/>
<path d="M104.293 77.0904C104.17 77.0904 104.047 77.0739 103.928 77.0416L72.5549 68.5171C71.8013 68.3126 71.3545 67.5274 71.5563 66.7637C71.7581 66.0007 72.533 65.5473 73.2866 65.7525L104.659 74.2694C105.344 74.4555 105.787 75.1261 105.694 75.8385C105.602 76.5502 105.004 77.0828 104.295 77.0828L104.293 77.0904Z" fill="#802F34"/>
<path d="M62.5395 74.6428C62.4158 74.6435 62.2927 74.627 62.1734 74.5941L58.0783 73.484C57.3247 73.2795 56.8779 72.4942 57.0797 71.7306C57.2816 70.9675 58.0565 70.5141 58.8095 70.7193L62.9051 71.8293C63.59 72.0155 64.0325 72.6867 63.94 73.3991C63.8475 74.1109 63.2482 74.6435 62.5395 74.6428Z" fill="#802F34"/>
<path d="M102.099 85.383C101.975 85.383 101.853 85.3665 101.734 85.3342L70.3589 76.8154C69.8715 76.6831 69.4909 76.2974 69.3603 75.8035C69.2303 75.3096 69.3697 74.7821 69.7265 74.4212C70.0833 74.0596 70.6032 73.9184 71.0906 74.0508L102.463 82.5695C103.148 82.7551 103.591 83.4263 103.498 84.138C103.406 84.8498 102.808 85.3823 102.099 85.383Z" fill="#802F34"/>
<path d="M87.9114 63.2792L78.6055 60.1308L86.5985 52.0312L89.7048 61.4619C89.8717 61.9773 89.7373 62.5447 89.3586 62.9284C88.9799 63.3122 88.4207 63.4477 87.9114 63.2792Z" fill="#BDC3C7"/>
<path d="M60.6446 25.7293L52.6515 33.8289L48.6553 29.7788C46.4482 27.5422 46.4482 23.9164 48.6553 21.6798C50.8625 19.4427 54.4412 19.4427 56.6484 21.6798L60.6446 25.7293Z" fill="#FB7B76"/>
<path d="M86.6008 52.0315L83.607 55.0653V55.0798L81.6154 57.0973H81.6017L78.6078 60.1311L56.6484 37.8789L59.656 34.8451L61.6476 32.8276L64.6414 29.7793L86.6008 52.0315Z" fill="#E64C3C"/>
<path d="M52.6523 33.8281L60.6447 25.7285L64.6409 29.7786L56.6485 37.8776L52.6523 33.8281Z" fill="#BDC3C7"/>
<path d="M66.6287 39.8955C66.36 40.1602 66.0006 40.309 65.6263 40.3103C65.2558 40.3084 64.9008 40.1596 64.6377 39.8955L59.6523 34.8436L61.6439 32.8262L66.6287 37.8774C67.1761 38.4359 67.1761 39.337 66.6287 39.8955Z" fill="#C03A2B"/>
<path d="M83.6098 55.0657V55.0803L81.6183 57.0977H81.6046L68.6268 43.9469C68.2681 43.5841 68.1281 43.0547 68.2593 42.5589C68.3906 42.0631 68.773 41.6755 69.2623 41.5432C69.7516 41.4102 70.2734 41.5521 70.6321 41.9149L83.6098 55.0657Z" fill="#C03A2B"/>
</g>
<defs>
<clipPath id="clip0_2180_228673">
<rect width="168" height="118" fill="white"/>
</clipPath>
<clipPath id="clip1_2180_228673">
<rect width="81.9079" height="83" fill="white" transform="translate(47 20)"/>
</clipPath>
</defs>
</svg>
