<svg width="168" height="118" viewBox="0 0 168 118" fill="none" xmlns="http://www.w3.org/2000/svg">
<g clip-path="url(#clip0_2180_228672)">
<path d="M144.827 1H110.069H104.276H63.7241H57.931H23.1725C23.1725 13.8173 12.7978 24.2083 0 24.2083V93.8328C12.7975 93.8328 23.1725 104.223 23.1725 117.041H144.828C144.828 104.224 155.202 93.8328 168 93.8328V24.2083C155.202 24.2083 144.827 13.8176 144.827 1Z" fill="#BC6640"/>
<path d="M23.1725 0.923828H8.68972C7.93995 0.923828 7.21217 1.0188 6.51819 1.19791C5.82421 1.37668 5.16369 1.63926 4.5478 1.97413C4.30171 2.10789 4.06251 2.2538 3.83118 2.4099C2.90685 3.03529 2.10886 3.83452 1.48411 4.76093C1.32792 4.99229 1.18256 5.23186 1.04901 5.47866C0.714327 6.09517 0.452484 6.75704 0.273984 7.45209C0.0948279 8.14715 0 8.87605 0 9.62697V24.1321C12.7975 24.1321 23.1725 13.7414 23.1725 0.923828Z" fill="#A05638"/>
<path d="M167.727 7.45176C167.548 6.75671 167.286 6.09484 166.952 5.47833C166.818 5.23186 166.672 4.99229 166.516 4.7606C165.892 3.83452 165.094 3.03561 164.169 2.40957C163.938 2.25314 163.699 2.10756 163.453 1.97381C162.837 1.6386 162.176 1.37635 161.482 1.19758C160.788 1.0188 160.061 0.923828 159.311 0.923828H144.828C144.828 13.7411 155.203 24.1321 168.001 24.1321V9.62698C168 8.87572 167.905 8.14682 167.727 7.45176Z" fill="#A05638"/>
<path d="M144.828 116.964H159.311C160.061 116.964 160.788 116.869 161.482 116.69C162.176 116.511 162.837 116.249 163.453 115.914C163.699 115.78 163.938 115.634 164.169 115.478C165.094 114.853 165.892 114.053 166.516 113.127C166.673 112.896 166.818 112.656 166.952 112.409C167.286 111.793 167.548 111.131 167.727 110.436C167.905 109.741 168 109.012 168 108.261V93.7559C155.203 93.7559 144.828 104.147 144.828 116.964Z" fill="#A05638"/>
<path d="M0 93.7559V108.261C0 109.012 0.0948279 109.741 0.273656 110.436C0.452155 111.131 0.714327 111.793 1.04869 112.409C1.18223 112.656 1.32792 112.895 1.48378 113.127C2.1082 114.053 2.9062 114.852 3.83085 115.478C4.06185 115.634 4.30105 115.78 4.54748 115.914C5.16304 116.249 5.82388 116.512 6.51786 116.69C7.21185 116.869 7.93963 116.964 8.68939 116.964H23.1721C23.1725 104.147 12.7975 93.7559 0 93.7559Z" fill="#A05638"/>
</g>
<path d="M107.813 60.3682C106.343 67.8538 124.785 70.027 117.731 86.8326C110.153 104.885 63.6551 111.071 46.6247 72.382C28.6416 31.5289 67.2557 11.5347 91.3189 19.86C111.141 26.7179 111.317 42.5198 107.813 60.3682Z" fill="#FFE9C8"/>
<path d="M107.812 60.368C111.316 42.5196 111.14 26.7177 91.3181 19.8598C81.5701 16.4873 69.4346 17.7626 59.6406 23.1887C68.8322 19.0601 79.5353 18.3313 88.3059 21.3658C108.128 28.2238 108.304 44.0256 104.8 61.874C103.331 69.3595 121.772 71.5328 114.718 88.3383C113.16 92.0506 109.955 95.2606 105.699 97.6821C111.448 95.1682 115.823 91.3766 117.73 86.8322C124.784 70.0268 106.343 67.8535 107.812 60.368Z" fill="#FFDCA7"/>
<path d="M106.714 85.2497C109.428 84.1378 110.726 81.0365 109.614 78.3227C108.502 75.6089 105.401 74.3103 102.687 75.4222C99.9734 76.5342 98.6748 79.6355 99.7867 82.3493C100.899 85.0631 104 86.3616 106.714 85.2497Z" fill="#009E65"/>
<path d="M104.721 75.0586C104.198 75.0586 103.692 75.1356 103.215 75.2765C105.415 75.9259 107.021 77.9602 107.021 80.3708C107.021 82.7813 105.415 84.8156 103.215 85.465C103.692 85.6061 104.198 85.6829 104.721 85.6829C107.655 85.6829 110.033 83.3046 110.033 80.3708C110.033 77.4369 107.655 75.0586 104.721 75.0586Z" fill="#008954"/>
<path d="M89.0595 90.8534C91.9259 90.2314 93.7453 87.4036 93.1233 84.5372C92.5014 81.6709 89.6735 79.8515 86.8072 80.4734C83.9408 81.0954 82.1214 83.9232 82.7434 86.7896C83.3653 89.6559 86.1932 91.4754 89.0595 90.8534Z" fill="#00E0A7"/>
<path d="M87.9435 80.3711C87.4202 80.3711 86.9151 80.4479 86.4375 80.589C88.6375 81.2384 90.2437 83.2727 90.2437 85.6833C90.2437 88.0938 88.6375 90.1281 86.4375 90.7775C86.9151 90.9186 87.4202 90.9954 87.9435 90.9954C90.8773 90.9954 93.2557 88.6171 93.2557 85.6833C93.2557 82.7496 90.8773 80.3711 87.9435 80.3711Z" fill="#00C988"/>
<path d="M60.8825 71.7845C63.8163 71.7845 66.1946 69.4061 66.1946 66.4723C66.1946 63.5385 63.8163 61.1602 60.8825 61.1602C57.9486 61.1602 55.5703 63.5385 55.5703 66.4723C55.5703 69.4061 57.9486 71.7845 60.8825 71.7845Z" fill="#00DDFF"/>
<path d="M60.8849 61.1602C60.3616 61.1602 59.8565 61.237 59.3789 61.378C61.5791 62.0274 63.1851 64.0618 63.1851 66.4723C63.1851 68.8829 61.5791 70.9172 59.3789 71.5666C59.8565 71.7076 60.3616 71.7845 60.8849 71.7845C63.8188 71.7845 66.1971 69.4062 66.1971 66.4723C66.1972 63.5385 63.8188 61.1602 60.8849 61.1602Z" fill="#00D0FD"/>
<path d="M59.2008 54.1394C61.9264 53.051 63.2535 49.9591 62.165 47.2336C61.0766 44.5081 57.9847 43.181 55.2592 44.2694C52.5337 45.3579 51.2066 48.4497 52.295 51.1752C53.3835 53.9008 56.4753 55.2279 59.2008 54.1394Z" fill="#FF656B"/>
<path d="M57.2287 43.873C56.7054 43.873 56.2002 43.9499 55.7227 44.0909C57.9226 44.7403 59.5288 46.7746 59.5288 49.1852C59.5288 51.5958 57.9226 53.6301 55.7227 54.2795C56.2002 54.4205 56.7054 54.4974 57.2287 54.4974C60.1625 54.4974 62.5408 52.1191 62.5408 49.1852C62.5408 46.2515 60.1625 43.873 57.2287 43.873Z" fill="#FF3E4C"/>
<path d="M69.5853 40.9733C72.481 40.498 74.4431 37.7653 73.9679 34.8696C73.4926 31.9739 70.7599 30.0118 67.8642 30.4871C64.9685 30.9624 63.0064 33.6951 63.4817 36.5908C63.9569 39.4864 66.6896 41.4486 69.5853 40.9733Z" fill="#FF9A00"/>
<path d="M68.713 30.4199C68.1897 30.4199 67.6846 30.4969 67.207 30.6378C69.407 31.2872 71.0132 33.3215 71.0132 35.7321C71.0132 38.1426 69.407 40.177 67.207 40.8264C67.6846 40.9674 68.1897 41.0442 68.713 41.0442C71.6469 41.0442 74.0252 38.6659 74.0252 35.7321C74.0253 32.7982 71.6469 30.4199 68.713 30.4199Z" fill="#EF8800"/>
<path d="M86.82 39.4056C89.7538 39.4056 92.1321 37.0272 92.1321 34.0934C92.1321 31.1596 89.7538 28.7812 86.82 28.7812C83.8862 28.7812 81.5078 31.1596 81.5078 34.0934C81.5078 37.0272 83.8862 39.4056 86.82 39.4056Z" fill="#FFDC00"/>
<path d="M86.8185 28.7812C86.2952 28.7812 85.7901 28.8583 85.3125 28.9991C87.5125 29.6485 89.1187 31.6828 89.1187 34.0934C89.1187 36.504 87.5125 38.5383 85.3125 39.1877C85.7901 39.3287 86.2952 39.4056 86.8185 39.4056C89.7524 39.4056 92.1307 37.0273 92.1307 34.0934C92.1307 31.1596 89.7524 28.7812 86.8185 28.7812Z" fill="#FFBF00"/>
<path d="M86.291 69.236L81.6211 64.5663L85.348 55.6191L95.238 65.5093L86.291 69.236Z" fill="#E6E2E6"/>
<path d="M83.9949 73.4819L77.3768 66.8638C76.4734 65.9602 76.4734 64.4954 77.3768 63.5918C78.2804 62.6882 79.7452 62.6882 80.6488 63.5918L87.2669 70.2099C88.1705 71.1135 88.1705 72.5783 87.2669 73.4819C86.3633 74.3855 84.8983 74.3855 83.9949 73.4819Z" fill="#FFDC00"/>
<path d="M82.9974 72.4879L78.3678 67.8584C76.5115 67.4943 74.5135 68.0309 73.0755 69.469C71.2798 71.2647 69.4611 78.1713 68.7546 81.0917C68.6076 81.6996 69.156 82.2481 69.7637 82.1009C72.6843 81.3944 79.5908 79.5759 81.3865 77.78C82.8249 76.3421 83.3616 74.3441 82.9974 72.4879Z" fill="#BC6640"/>
<path d="M95.2376 65.5095L85.3477 55.6194L118.391 26.8385C119.972 25.4614 122.349 25.5433 123.831 27.0259C125.314 28.5084 125.396 30.8857 124.019 32.4666L95.2376 65.5095Z" fill="#8C808A"/>
<path d="M93.1073 63.3789L84.1602 67.1058L86.2901 69.2356L95.2371 65.5089L93.1073 63.3789Z" fill="#D8D1D7"/>
<path d="M87.2613 70.2099L85.1314 68.0801C86.035 68.9837 86.035 70.4485 85.1314 71.3521C84.2278 72.2557 82.763 72.2557 81.8594 71.3521L83.9893 73.4821C84.8929 74.3855 86.3577 74.3857 87.2613 73.4821C88.1648 72.5785 88.1648 71.1135 87.2613 70.2099Z" fill="#FFBF00"/>
<path d="M82.9971 72.4874L80.8672 70.3574C81.2314 72.2137 80.6947 74.2117 79.2566 75.6498C77.7213 77.1851 72.4506 78.737 69.1287 79.5964C68.9829 80.1595 68.8571 80.6668 68.7547 81.0904C68.6075 81.6988 69.1552 82.2477 69.7636 82.1005C72.6842 81.394 79.5907 79.5753 81.3864 77.7796C82.8246 76.3415 83.3614 74.3435 82.9971 72.4874Z" fill="#A05638"/>
<path d="M121.89 30.3353L93.1094 63.3782L95.2392 65.508L124.02 32.4651C125.397 30.8841 125.315 28.5069 123.833 27.0244C123.457 26.6483 123.023 26.3628 122.559 26.168C123.133 27.532 122.918 29.1553 121.89 30.3353Z" fill="#7B7179"/>
<defs>
<clipPath id="clip0_2180_228672">
<rect width="168" height="118" fill="white"/>
</clipPath>
</defs>
</svg>
