<svg width="96" height="86" viewBox="0 0 96 86" fill="none" xmlns="http://www.w3.org/2000/svg">
<path d="M51.0938 3.1875V7.21875L52.5 9H57C57.8284 9 58.5 8.32837 58.5 7.5V3C58.5 2.17162 57.8284 1.5 57 1.5H52.5L51.0938 3.1875Z" fill="#FF8086"/>
<path d="M48 1.5H52.5V9H48V1.5Z" fill="#E5646E"/>
<path d="M49.5 18H46.5V1.5C46.5 0.671625 47.1716 0 48 0C48.8284 0 49.5 0.671625 49.5 1.5V18Z" fill="#FFC269"/>
<path d="M87.5278 28.5H8.47744C7.88456 28.5 7.34756 28.8491 7.10681 29.3908L2.83594 39L6.65888 40.2188H89.7214L93.1693 39L88.8986 29.3908C88.6577 28.8491 88.1207 28.5 87.5278 28.5Z" fill="#FF8086"/>
<path d="M93.5607 39.8908L93.1649 39H2.83153L2.43572 39.8908C1.99472 40.8827 2.72091 42 3.80634 42H4.49822L5.48259 43.4062H90.3108L91.4982 42H92.1901C93.2755 42 94.0017 40.8827 93.5607 39.8908Z" fill="#E5646E"/>
<path d="M91.4999 84H6.3125V43.4999H23.9999L47.9999 21.6875L72.0001 43.4999L91.4999 44.9999V84Z" fill="#FFC269"/>
<path d="M39 66V81H57V66C57 65.1716 56.3284 64.5 55.5 64.5H49.5L48.0624 66.1251L46.5 64.5H40.5C39.6716 64.5 39 65.1716 39 66Z" fill="#C38C66"/>
<path d="M46.5 64.5H49.5V79.5H46.5V64.5Z" fill="#B57F5F"/>
<path d="M48 54C52.9706 54 57 49.9706 57 45C57 40.0294 52.9706 36 48 36C43.0294 36 39 40.0294 39 45C39 49.9706 43.0294 54 48 54Z" fill="#FFF0AF"/>
<path d="M48 51C51.3137 51 54 48.3137 54 45C54 41.6863 51.3137 39 48 39C44.6863 39 42 41.6863 42 45C42 48.3137 44.6863 51 48 51Z" fill="white"/>
<path d="M52.3418 42.8284C51.9698 42.0872 51.0703 41.7898 50.3291 42.1575L47.3291 43.6575L46.5 44.9992V47.9992C46.5 48.8284 47.1709 49.4992 48 49.4992C48.8291 49.4992 49.5 48.8284 49.5 47.9992V45.9264L51.6709 44.841C52.4121 44.4705 52.7124 43.5696 52.3418 42.8284Z" fill="#857E87"/>
<path d="M36 79.5V84H60V79.5C60 78.6716 59.3284 78 58.5 78H37.5C36.6716 78 36 78.6716 36 79.5Z" fill="#C8C5C9"/>
<path d="M72.0002 42L48 18L24 42H4.5V84H7.5V48C7.5 46.3431 8.84306 45 10.5 45H25.4987C26.6925 45 27.8374 44.5258 28.6815 43.6817L48 24.3639L67.3183 43.6815C68.1624 44.5256 69.3073 44.9998 70.5011 44.9998H91.5V41.9998H72.0002V42Z" fill="#FFA95F"/>
<path d="M72.0001 43.5001C71.6163 43.5001 71.2325 43.3537 70.9396 43.0606L48.0001 20.1213L25.0606 43.0606C24.4747 43.6466 23.5254 43.6466 22.9395 43.0606C22.3535 42.4747 22.3535 41.5254 22.9395 40.9395L46.9394 16.9395C47.5254 16.3535 48.4747 16.3535 49.0606 16.9395L73.0606 40.9395C73.6466 41.5254 73.6466 42.4747 73.0606 43.0606C72.7677 43.3537 72.3839 43.5001 72.0001 43.5001Z" fill="#DB4655"/>
<path d="M94.5 85.5H1.5C0.670875 85.5 0 84.8291 0 84C0 83.1709 0.670875 82.5 1.5 82.5H94.5C95.3291 82.5 96 83.1709 96 84C96 84.8291 95.3291 85.5 94.5 85.5Z" fill="#DAD8DB"/>
<path d="M13.5 72H30C30.8284 72 31.5 71.3284 31.5 70.5V66C31.5 65.1716 30.8284 64.5 30 64.5H22.5L20.9374 65.5626L19.5 64.5H13.5C12.6716 64.5 12 65.1716 12 66V70.5C12 71.3284 12.6716 72 13.5 72Z" fill="#EDF4FF"/>
<path d="M13.5 67.5V64.5H12C11.1716 64.5 10.5 65.1716 10.5 66V72C10.5 72.8284 11.1716 73.5 12 73.5H19.5L21 72.6328L22.5 73.5H30C30.8284 73.5 31.5 72.8284 31.5 72V70.5H16.5C14.8431 70.5 13.5 69.1569 13.5 67.5Z" fill="#DBEAFF"/>
<path d="M20.9297 71.3906L19.5 70.5V64.5H22.5V70.5L20.9297 71.3906Z" fill="#FFE09F"/>
<path d="M19.5 70.5H22.5V73.5H19.5V70.5Z" fill="#FFC269"/>
<path d="M48 46.5C48.8284 46.5 49.5 45.8284 49.5 45C49.5 44.1716 48.8284 43.5 48 43.5C47.1716 43.5 46.5 44.1716 46.5 45C46.5 45.8284 47.1716 46.5 48 46.5Z" fill="#4B3F4E"/>
<path d="M13.5 57H30C30.8284 57 31.5 56.3284 31.5 55.5V51C31.5 50.1716 30.8284 49.5 30 49.5H22.5L20.9374 50.5626L19.5 49.5H13.5C12.6716 49.5 12 50.1716 12 51V55.5C12 56.3284 12.6716 57 13.5 57Z" fill="#EDF4FF"/>
<path d="M13.5 52.5V49.5H12C11.1716 49.5 10.5 50.1716 10.5 51V57C10.5 57.8284 11.1716 58.5 12 58.5H19.5L21 57.6328L22.5 58.5H30C30.8284 58.5 31.5 57.8284 31.5 57V55.5H16.5C14.8431 55.5 13.5 54.1569 13.5 52.5Z" fill="#DBEAFF"/>
<path d="M20.9297 56.3906L19.5 55.5V49.5H22.5V55.5L20.9297 56.3906Z" fill="#FFE09F"/>
<path d="M19.5 55.5H22.5V58.5H19.5V55.5Z" fill="#FFC269"/>
<path d="M67.5 72H84C84.8284 72 85.5 71.3284 85.5 70.5V66C85.5 65.1716 84.8284 64.5 84 64.5H76.5L74.9374 65.5626L73.5 64.5H67.5C66.6716 64.5 66 65.1716 66 66V70.5C66 71.3284 66.6716 72 67.5 72Z" fill="#EDF4FF"/>
<path d="M67.5 67.5V64.5H66C65.1716 64.5 64.5 65.1716 64.5 66V72C64.5 72.8284 65.1716 73.5 66 73.5H73.5L75 72.6328L76.5 73.5H84C84.8284 73.5 85.5 72.8284 85.5 72V70.5H70.5C68.8431 70.5 67.5 69.1569 67.5 67.5Z" fill="#DBEAFF"/>
<path d="M74.9297 71.3906L73.5 70.5V64.5H76.5V70.5L74.9297 71.3906Z" fill="#FFE09F"/>
<path d="M73.5 70.5H76.5V73.5H73.5V70.5Z" fill="#FFC269"/>
<path d="M67.5 57H84C84.8284 57 85.5 56.3284 85.5 55.5V51C85.5 50.1716 84.8284 49.5 84 49.5H76.5L74.9374 50.5626L73.5 49.5H67.5C66.6716 49.5 66 50.1716 66 51V55.5C66 56.3284 66.6716 57 67.5 57Z" fill="#EDF4FF"/>
<path d="M67.5 52.5V49.5H66C65.1716 49.5 64.5 50.1716 64.5 51V57C64.5 57.8284 65.1716 58.5 66 58.5H73.5L75 57.6328L76.5 58.5H84C84.8284 58.5 85.5 57.8284 85.5 57V55.5H70.5C68.8431 55.5 67.5 54.1569 67.5 52.5Z" fill="#DBEAFF"/>
<path d="M74.9297 56.3906L73.5 55.5V49.5H76.5V55.5L74.9297 56.3906Z" fill="#FFE09F"/>
<path d="M73.5 55.5H76.5V58.5H73.5V55.5Z" fill="#FFC269"/>
</svg>
