<svg width="21" height="25" viewBox="0 0 21 25" fill="none" xmlns="http://www.w3.org/2000/svg">
<rect y="0.375" width="21" height="23.9786" rx="6" fill="#16408B"/>
<path d="M10.8736 7.18244L10.7443 14.436H9.36719L9.23793 7.18244H10.8736ZM10.0582 17.4587C9.78314 17.4587 9.54782 17.3626 9.35227 17.1704C9.15672 16.9748 9.06061 16.7395 9.06392 16.4644C9.06061 16.1926 9.15672 15.9606 9.35227 15.7684C9.54782 15.5728 9.78314 15.4751 10.0582 15.4751C10.3267 15.4751 10.5587 15.5728 10.7543 15.7684C10.9498 15.9606 11.0492 16.1926 11.0526 16.4644C11.0492 16.6467 11.0012 16.8141 10.9084 16.9665C10.8189 17.1157 10.6996 17.235 10.5504 17.3245C10.4013 17.414 10.2372 17.4587 10.0582 17.4587Z" fill="white"/>
</svg>
